<svg width="39" height="30" viewBox="0 0 39 30" fill="none" xmlns="http://www.w3.org/2000/svg">
<path d="M2.78571 6H36.2143C37.752 6 39 4.656 39 3C39 1.344 37.752 0 36.2143 0H2.78571C1.248 0 0 1.344 0 3C0 4.656 1.248 6 2.78571 6ZM36.2143 12H2.78571C1.248 12 0 13.344 0 15C0 16.656 1.248 18 2.78571 18H36.2143C37.752 18 39 16.656 39 15C39 13.344 37.752 12 36.2143 12ZM36.2143 24H2.78571C1.248 24 0 25.344 0 27C0 28.656 1.248 30 2.78571 30H36.2143C37.752 30 39 28.656 39 27C39 25.344 37.752 24 36.2143 24Z" fill="#A3A19A"/>
</svg>
