<svg width="99" height="99" viewBox="0 0 99 99" fill="none" xmlns="http://www.w3.org/2000/svg">
<path d="M49.4999 1.48499C22.9679 1.48499 1.48486 22.968 1.48486 49.5C1.48486 76.032 22.9679 97.515 49.4999 97.515C76.0319 97.515 97.5149 76.032 97.5149 49.5C97.5149 22.968 76.0319 1.48499 49.4999 1.48499ZM49.4999 94.7925C24.5024 94.7925 4.20736 74.547 4.20736 49.5C4.20736 24.5025 24.5024 4.20749 49.4999 4.20749C74.4974 4.20749 94.7924 24.453 94.7924 49.5C94.7924 74.4975 74.4974 94.7925 49.4999 94.7925Z" fill="#E2DFD1"/>
<path d="M49.4999 93.06C73.5575 93.06 93.0599 73.5575 93.0599 49.5C93.0599 25.4425 73.5575 5.94 49.4999 5.94C25.4424 5.94 5.93994 25.4425 5.93994 49.5C5.93994 73.5575 25.4424 93.06 49.4999 93.06Z" stroke="#E2DFD1" stroke-miterlimit="10"/>
<path d="M19.9484 41.382V41.3325H24.4034C25.1459 41.3325 25.8389 41.382 26.5319 41.5305C27.2249 41.679 27.8189 41.877 28.3139 42.174C28.8584 42.471 29.2544 42.9165 29.5514 43.4115C29.8484 43.9065 29.9969 44.5995 29.9969 45.342C29.9969 45.936 29.8979 46.4805 29.6999 46.926C29.5019 47.3715 29.2049 47.7675 28.9079 48.0645C28.5614 48.3615 28.1654 48.609 27.6704 48.807C27.1754 49.005 26.6804 49.1535 26.1359 49.203L30.0464 55.44C30.2444 55.7865 30.5414 56.034 30.8384 56.133C31.1354 56.232 31.5809 56.331 32.0759 56.331V56.43H27.3239V56.43C27.8189 56.43 28.1159 56.3805 28.3139 56.232C28.5119 56.0835 28.4624 55.8855 28.2644 55.539L24.5024 49.5H22.9184V55.5885C22.9184 55.935 23.0174 56.1825 23.2649 56.2815C23.5124 56.3805 23.8589 56.4795 24.3539 56.4795V56.5785H19.8989V56.43C20.4434 56.43 20.7899 56.3805 21.0374 56.232C21.2849 56.0835 21.3839 55.8855 21.3839 55.539V42.3225C21.3839 41.976 21.2849 41.7285 21.0374 41.58C20.8889 41.481 20.4929 41.382 19.9484 41.382ZM22.9184 49.2525H24.3539C24.7994 49.2525 25.2944 49.203 25.7894 49.1535C26.2844 49.104 26.7299 48.9555 27.1754 48.6585C27.6209 48.411 27.9674 48.015 28.2149 47.52C28.4624 47.025 28.6109 46.2825 28.6109 45.441C28.6109 44.5995 28.4624 43.857 28.2149 43.362C27.9674 42.867 27.6209 42.471 27.1754 42.2235C26.7299 41.976 26.2844 41.8275 25.7894 41.778C25.2944 41.7285 24.7994 41.679 24.3539 41.679H22.9184V49.2525Z" fill="#E2DFD1"/>
<path d="M31.9272 44.7975H38.6097L39.3027 47.5695L39.1047 47.6685C39.0057 47.322 38.9067 47.025 38.7582 46.728C38.6592 46.431 38.4612 46.134 38.2137 45.8865C37.9662 45.639 37.6692 45.441 37.2732 45.2925C36.8772 45.144 36.3822 45.045 35.8377 45.045H34.4517V49.5H36.1842C36.4812 49.5 36.7287 49.401 36.8277 49.203C36.9267 49.005 36.9762 48.6585 36.9762 48.213H37.1247V50.985H36.9762C36.9762 50.5395 36.9267 50.193 36.8277 49.995C36.7287 49.797 36.5307 49.698 36.1842 49.698H34.4517V56.331H36.2337C36.8277 56.331 37.3227 56.232 37.7187 56.0835C38.1147 55.935 38.4117 55.737 38.6592 55.4895C38.9067 55.242 39.0552 54.9945 39.2037 54.648C39.3027 54.351 39.4512 54.0045 39.5502 53.658L39.7482 53.7075L39.0552 56.4795H31.9272V56.43C32.3727 56.43 32.6697 56.3805 32.8677 56.2815C33.0657 56.1825 33.1647 55.935 33.1647 55.6875V45.639C33.1647 45.342 33.0657 45.144 32.8677 45.045C32.6697 44.946 32.3232 44.8965 31.9272 44.8965V44.7975Z" fill="#E2DFD1"/>
<path d="M40.194 44.7975H46.8765L47.5695 47.5695L47.3715 47.6685C47.2725 47.322 47.1735 47.025 47.025 46.728C46.8765 46.431 46.728 46.134 46.4805 45.8865C46.233 45.639 45.936 45.441 45.54 45.2925C45.144 45.144 44.649 45.045 44.1045 45.045H42.7185V49.5H44.4015C44.6985 49.5 44.8965 49.401 44.9955 49.203C45.0945 49.005 45.1935 48.6585 45.1935 48.213H45.342V50.985H45.1935C45.1935 50.5395 45.144 50.193 44.9955 49.995C44.8965 49.797 44.6985 49.698 44.4015 49.698H42.7185V55.737C42.7185 56.034 42.8175 56.232 43.0155 56.331C43.2135 56.43 43.56 56.4795 44.0055 56.4795V56.529H40.1445V56.4795C40.59 56.4795 40.9365 56.43 41.1345 56.331C41.3325 56.232 41.4315 55.9845 41.4315 55.737V45.639C41.4315 45.342 41.3325 45.144 41.1345 45.045C40.9365 44.946 40.59 44.8965 40.1445 44.8965V44.7975H40.194Z" fill="#E2DFD1"/>
<path d="M47.8171 44.8965V44.7975H51.6781V44.8965C51.2326 44.8965 50.9356 44.946 50.6881 45.045C50.4901 45.144 50.3911 45.342 50.3911 45.639V56.2815C50.7376 56.2815 51.1336 56.2815 51.5296 56.331C51.9256 56.3805 52.3711 56.43 52.8166 56.43C53.2621 56.4795 53.7571 56.4795 54.2026 56.529C54.6976 56.5785 55.1431 56.5785 55.5391 56.5785C56.3311 56.5785 56.9746 56.4795 57.5686 56.331C58.1626 56.1825 58.5091 55.836 58.6576 55.3905H58.7566C58.7071 55.7865 58.5586 56.1825 58.3606 56.4795C58.2121 56.7765 58.0141 57.024 57.7171 57.222C57.4201 57.42 57.0736 57.5685 56.6281 57.5685C56.1331 57.5685 55.6381 57.519 55.1431 57.3705C54.6481 57.222 54.1531 57.123 53.6581 56.9745C53.1631 56.826 52.6186 56.727 52.0741 56.5785C51.5296 56.43 50.9356 56.43 50.3416 56.43H47.7676V56.3805C48.2131 56.3805 48.5596 56.331 48.7576 56.232C48.9556 56.133 49.0546 55.8855 49.0546 55.638V45.639C49.0546 45.342 48.9556 45.144 48.7576 45.045C48.5596 44.946 48.2626 44.8965 47.8171 44.8965ZM52.1731 44.7975H57.8656L58.5091 47.5695L58.3606 47.6685C58.2616 47.322 58.1626 47.025 58.0141 46.728C57.8656 46.431 57.7171 46.134 57.4696 45.8865C57.2221 45.639 56.9251 45.441 56.5786 45.2925C56.1826 45.144 55.6876 45.045 55.0936 45.045H54.6976V48.6585H55.6876C55.9846 48.6585 56.1826 48.5595 56.2816 48.3615C56.3806 48.1635 56.4301 47.817 56.4301 47.3715H56.5786V50.1435H56.4301C56.4301 49.698 56.3806 49.3515 56.2816 49.1535C56.1826 48.9555 55.9351 48.8565 55.6876 48.8565H54.6976V53.3115H55.4896C56.0836 53.3115 56.5786 53.2125 56.9746 53.064C57.3706 52.9155 57.6676 52.7175 57.9151 52.47C58.1626 52.2225 58.3111 51.9255 58.4596 51.6285C58.6081 51.3315 58.7071 50.985 58.8061 50.688L58.9546 50.7375L58.3111 53.46H52.1731V53.46C52.6186 53.46 52.9651 53.4105 53.1631 53.3115C53.3611 53.2125 53.4601 52.965 53.4601 52.7175V45.639C53.4601 45.342 53.3611 45.144 53.1631 45.045C52.9651 44.946 52.6186 44.8965 52.1731 44.8965V44.7975Z" fill="#E2DFD1"/>
<path d="M60.3898 53.1135C60.6868 53.1135 60.8848 53.2125 61.0333 53.361C61.1818 53.5095 61.2808 53.7075 61.2808 53.955C61.2808 54.153 61.2808 54.351 61.1818 54.4995C61.0828 54.648 61.0333 54.747 60.9343 54.846C60.8353 54.945 60.7363 55.044 60.6868 55.0935C60.5878 55.1925 60.5383 55.242 60.5383 55.341C60.4888 55.4895 60.5383 55.638 60.5878 55.7865C60.6373 55.935 60.7858 56.0835 60.9343 56.1825C61.0828 56.2815 61.2808 56.3805 61.4788 56.43C61.6768 56.4795 61.9243 56.529 62.1223 56.529C62.6668 56.529 63.1123 56.331 63.3598 55.9845C63.6568 55.5885 63.8053 54.9945 63.8053 54.153V45.837C63.8053 45.54 63.6568 45.2925 63.3598 45.144C63.0628 44.9955 62.5678 44.8965 61.7758 44.8965V44.7975H66.3298V44.8965C65.8843 44.8965 65.5873 44.946 65.3893 45.045C65.1913 45.144 65.0923 45.342 65.0923 45.639V53.46C65.0923 53.856 65.0428 54.3015 64.8448 54.6975C64.6963 55.0935 64.4983 55.44 64.2508 55.737C64.0033 56.034 63.6568 56.2815 63.3103 56.43C62.9638 56.628 62.5678 56.727 62.0728 56.727C61.6768 56.727 61.2808 56.6775 60.9343 56.529C60.5878 56.3805 60.2908 56.232 60.0433 55.9845C59.7958 55.737 59.6473 55.4895 59.4988 55.1925C59.3503 54.8955 59.3008 54.549 59.3008 54.2025C59.3008 53.856 59.3998 53.559 59.5978 53.361C59.9443 53.2125 60.1423 53.1135 60.3898 53.1135Z" fill="#E2DFD1"/>
<path d="M72.963 44.55C73.9035 44.55 74.745 44.6985 75.4875 45.045C76.23 45.3915 76.8735 45.837 77.418 46.3815C77.9625 46.926 78.3585 47.5695 78.6555 48.312C78.9525 49.0545 79.0515 49.797 79.0515 50.6385C79.0515 51.4305 78.903 52.2225 78.6555 52.965C78.3585 53.7075 77.9625 54.351 77.418 54.8955C76.8735 55.44 76.23 55.8855 75.4875 56.232C74.745 56.5785 73.9035 56.727 72.963 56.727C72.0225 56.727 71.181 56.5785 70.4385 56.232C69.696 55.8855 69.0525 55.44 68.508 54.8955C67.9635 54.351 67.5675 53.7075 67.2705 52.965C66.9735 52.2225 66.8745 51.48 66.8745 50.6385C66.8745 49.8465 67.023 49.0545 67.2705 48.312C67.5675 47.5695 67.9635 46.926 68.508 46.3815C69.0525 45.837 69.696 45.3915 70.4385 45.045C71.181 44.748 72.0225 44.55 72.963 44.55ZM68.1615 50.6385C68.1615 51.5295 68.31 52.3215 68.508 53.064C68.706 53.8065 69.0525 54.4005 69.4485 54.8955C69.8445 55.3905 70.3395 55.7865 70.9335 56.0835C71.5275 56.3805 72.171 56.529 72.9135 56.529C73.656 56.529 74.2995 56.3805 74.8935 56.0835C75.4875 55.7865 75.9825 55.3905 76.3785 54.8955C76.7745 54.4005 77.121 53.757 77.319 53.064C77.5665 52.3215 77.6655 51.5295 77.6655 50.6385C77.6655 49.7475 77.5665 48.9555 77.319 48.213C77.121 47.4705 76.7745 46.8765 76.3785 46.3815C75.9825 45.8865 75.4875 45.4905 74.8935 45.1935C74.2995 44.8965 73.656 44.748 72.9135 44.748C72.171 44.748 71.5275 44.8965 70.9335 45.1935C70.3395 45.4905 69.8445 45.8865 69.4485 46.3815C69.0525 46.8765 68.706 47.52 68.508 48.213C68.2605 48.9555 68.1615 49.7475 68.1615 50.6385Z" fill="#E2DFD1"/>
<path d="M77.2198 62.9145C61.2313 64.0035 44.7478 63.954 28.7098 63.3105C26.3833 63.162 24.1063 63.1125 21.7798 62.9145C35.2933 62.667 63.7063 62.667 77.2198 62.9145Z" fill="#E2DFD1"/>
<path d="M20.79 38.313C24.354 37.3725 28.0665 37.323 31.7295 37.6695C32.967 37.818 34.155 37.9665 35.3925 38.313V38.412C31.7295 38.4615 24.453 38.4615 20.79 38.412C20.79 38.412 20.79 38.313 20.79 38.313Z" fill="#E2DFD1"/>
<path d="M62.3701 38.313C65.9341 37.3725 69.6466 37.323 73.3096 37.6695C74.5471 37.818 75.7351 37.9665 76.9726 38.313V38.412C73.3096 38.4615 66.0331 38.4615 62.3701 38.412C62.3701 38.412 62.3701 38.313 62.3701 38.313Z" fill="#E2DFD1"/>
<path d="M35.145 76.9725C35.5905 76.8735 36.1845 76.824 36.63 76.8735H38.115H39.6C40.0455 76.8735 40.6395 76.8735 41.085 77.022C40.6395 77.121 40.0455 77.1705 39.6 77.121H38.115H36.63C36.1845 77.121 35.5905 77.0715 35.145 76.9725Z" fill="#E2DFD1"/>
<path d="M58.4102 76.9725C58.8557 76.8735 59.4497 76.824 59.8952 76.8735H61.3802H62.8652C63.3107 76.8735 63.9047 76.8735 64.3502 77.022C63.9047 77.121 63.3107 77.1705 62.8652 77.121H61.3802H59.8952C59.4497 77.121 58.8557 77.0715 58.4102 76.9725Z" fill="#E2DFD1"/>
<path fill-rule="evenodd" clip-rule="evenodd" d="M39.4515 20.493C42.0255 18.9585 45.54 19.9485 48.213 22.671C48.114 22.968 48.015 23.265 47.9655 23.562C47.2725 26.2845 47.4705 28.9575 48.312 31.086C48.906 32.571 49.797 33.759 50.985 34.551C50.688 35.145 50.2425 35.6895 49.7475 36.0855C48.2625 31.185 46.4805 29.403 44.5005 27.918C42.57 26.4825 40.293 25.0965 39.2535 20.592C39.3525 20.5425 39.402 20.493 39.4515 20.493ZM57.5685 16.236C61.182 17.127 63.1125 21.9285 61.875 26.9775C60.7365 31.6305 57.2715 34.7985 53.9055 34.551C56.331 30.0465 56.331 27.522 55.9845 25.0965C55.638 22.7205 54.9945 20.1465 57.42 16.1865C57.4695 16.236 57.519 16.236 57.5685 16.236ZM53.3115 34.5015C53.2125 34.5015 53.1135 34.452 53.0145 34.452C49.401 33.561 47.4705 28.7595 48.708 23.7105C49.896 18.9585 53.46 15.741 56.925 16.137C54.3015 20.295 54.252 22.5225 54.5985 24.9975C54.945 27.324 55.539 30.195 53.3115 34.5015ZM49.3515 36.3825C49.2525 36.432 49.203 36.4815 49.104 36.531C45.8865 38.4615 41.1345 36.432 38.4615 31.977C35.937 27.819 36.1845 22.968 38.907 20.8395C39.996 25.641 41.5305 27.225 43.5105 28.7595C45.441 30.1455 47.916 31.779 49.3515 36.3825Z" fill="#E2DFD1"/>
<path d="M35.7388 72.864C35.8378 72.864 35.9368 72.864 35.9863 72.8145C36.0358 72.765 36.0853 72.7155 36.0853 72.666V69.7455C36.0853 69.6465 36.0358 69.597 35.9863 69.597C35.9368 69.597 35.8378 69.5475 35.7388 69.5475H36.6298C36.7783 69.5475 36.9763 69.5475 37.1248 69.597C37.2733 69.6465 37.4218 69.696 37.5703 69.7455C37.7188 69.8445 37.8178 69.9435 37.8673 70.0425C37.9663 70.191 37.9663 70.3395 37.9663 70.488C37.9663 70.686 37.9168 70.8345 37.8673 70.9335C37.7683 71.082 37.6693 71.181 37.5703 71.2305C37.4218 71.3295 37.3228 71.379 37.1248 71.379C36.9763 71.4285 36.8278 71.4285 36.6298 71.4285H36.3823V72.567C36.3823 72.666 36.4318 72.7155 36.4813 72.7155C36.5308 72.765 36.6298 72.765 36.7288 72.765L35.7388 72.864ZM36.4318 69.597V71.478H36.7288C36.8278 71.478 36.9268 71.478 37.0258 71.4285C37.1248 71.379 37.2238 71.379 37.3228 71.28C37.4218 71.2305 37.4713 71.1315 37.5703 70.983C37.6693 70.8345 37.6693 70.686 37.6693 70.488C37.6693 70.29 37.6198 70.1415 37.5703 69.993C37.5208 69.894 37.4218 69.795 37.3228 69.696C37.2238 69.6465 37.1248 69.597 37.0258 69.5475C36.9268 69.498 36.8278 69.498 36.7288 69.498H36.4318V69.597Z" fill="#E2DFD1"/>
<path d="M38.0654 72.864C38.1644 72.864 38.2139 72.864 38.2634 72.8145C38.3129 72.765 38.3129 72.765 38.3129 72.666V70.4385C38.3129 70.389 38.3129 70.3395 38.2634 70.29C38.2139 70.2405 38.1644 70.2405 38.0654 70.2405H38.8574C39.0059 70.2405 39.1544 70.2405 39.2534 70.29C39.4019 70.29 39.5009 70.3395 39.5999 70.389C39.6989 70.4385 39.7979 70.5375 39.8474 70.6365C39.8969 70.7355 39.9464 70.884 39.9464 71.0325C39.9464 71.1315 39.9464 71.2305 39.8969 71.3295C39.8474 71.4285 39.7979 71.478 39.7484 71.5275C39.6989 71.577 39.5999 71.6265 39.5009 71.676C39.4019 71.7255 39.3029 71.7255 39.2039 71.775L39.7484 72.666C39.7979 72.7155 39.8474 72.765 39.8969 72.8145C39.9464 72.864 40.0454 72.864 40.1444 72.864H39.2534C39.3524 72.864 39.4019 72.864 39.4514 72.8145C39.5009 72.765 39.5009 72.765 39.4514 72.666L38.9069 71.8245H38.5604V72.666C38.5604 72.7155 38.5604 72.765 38.6099 72.8145C38.6594 72.864 38.7089 72.864 38.8079 72.864H38.0654ZM38.6594 71.775H38.9069C39.0059 71.775 39.1049 71.775 39.2039 71.7255C39.3029 71.7255 39.4019 71.676 39.4514 71.6265C39.5009 71.577 39.5999 71.478 39.6494 71.4285C39.6989 71.379 39.6989 71.2305 39.6989 71.082C39.6989 70.9335 39.6989 70.8345 39.6494 70.7355C39.5999 70.6365 39.5504 70.587 39.4514 70.5375C39.3524 70.488 39.3029 70.4385 39.2039 70.4385C39.1049 70.4385 39.0059 70.389 38.9069 70.389H38.6594V71.775Z" fill="#E2DFD1"/>
<path d="M40.2432 70.29H41.7282L41.8767 70.884H41.8272C41.8272 70.8345 41.7777 70.7355 41.7777 70.686C41.7282 70.6365 41.7282 70.5375 41.6787 70.488C41.6292 70.4385 41.5797 70.389 41.4807 70.3395C41.3817 70.29 41.2827 70.29 41.1837 70.29H40.8867V71.28H41.2827C41.3322 71.28 41.3817 71.28 41.4312 71.2305C41.4312 71.181 41.4807 71.1315 41.4807 71.0325H41.5302V71.6265H41.4807C41.4807 71.5275 41.4807 71.478 41.4312 71.4285C41.4312 71.379 41.3817 71.379 41.2827 71.379H40.8867V72.8145H41.2827C41.4312 72.8145 41.5302 72.8145 41.5797 72.765C41.6787 72.7155 41.7282 72.666 41.7777 72.6165C41.8272 72.567 41.8767 72.5175 41.8767 72.4185C41.9262 72.369 41.9262 72.27 41.9262 72.2205H41.9757L41.8272 72.8145H40.2432C40.3422 72.8145 40.3917 72.8145 40.4412 72.765C40.4907 72.7155 40.4907 72.7155 40.4907 72.6165V70.389C40.4907 70.3395 40.4907 70.29 40.4412 70.2405C40.3917 70.3395 40.3422 70.29 40.2432 70.29Z" fill="#E2DFD1"/>
<path d="M42.3222 72.666V70.4385C42.3222 70.389 42.3222 70.3395 42.2727 70.29C42.2232 70.2405 42.1737 70.29 42.0747 70.29H42.5697L43.3122 71.973L44.0547 70.29H44.5497C44.4507 70.29 44.4012 70.29 44.3517 70.3395C44.3022 70.389 44.3022 70.389 44.3022 70.488V72.7155C44.3022 72.765 44.3022 72.8145 44.3517 72.864C44.4012 72.9135 44.4507 72.9135 44.5497 72.9135H43.7082C43.8072 72.9135 43.8567 72.9135 43.9062 72.864C43.9557 72.8145 43.9557 72.8145 43.9557 72.7155V70.6365L43.1637 72.468L42.3717 70.6365L42.3222 72.666C42.3717 72.7155 42.3717 72.765 42.4212 72.8145C42.4707 72.864 42.5202 72.864 42.6192 72.864H42.0747C42.1737 72.864 42.2232 72.864 42.2727 72.8145C42.3222 72.8145 42.3222 72.765 42.3222 72.666Z" fill="#E2DFD1"/>
<path d="M44.6982 72.864C44.7972 72.864 44.8467 72.864 44.8962 72.8145C44.9457 72.765 44.9457 72.765 44.9457 72.666V70.4385C44.9457 70.389 44.9457 70.3395 44.8962 70.29C44.8467 70.2405 44.7972 70.2405 44.6982 70.2405H45.5397C45.4407 70.2405 45.3912 70.2405 45.3417 70.29C45.2922 70.3395 45.2922 70.3395 45.2922 70.4385V72.666C45.2922 72.7155 45.2922 72.765 45.3417 72.8145C45.3912 72.864 45.4407 72.864 45.5397 72.864H44.6982Z" fill="#E2DFD1"/>
<path d="M45.6387 70.29H46.4802C46.3812 70.29 46.3317 70.29 46.2822 70.3395C46.2327 70.3395 46.2327 70.389 46.2327 70.488V71.9235C46.2327 72.072 46.2327 72.2205 46.2822 72.3195C46.3317 72.4185 46.3812 72.5175 46.4307 72.567C46.4802 72.6165 46.5792 72.666 46.6782 72.7155C46.7772 72.765 46.8762 72.765 46.9752 72.765C47.2227 72.765 47.3712 72.7155 47.5197 72.567C47.6682 72.4185 47.7672 72.2205 47.7672 71.9235V70.488C47.7672 70.4385 47.7672 70.389 47.7177 70.3395C47.6682 70.3395 47.6187 70.29 47.5197 70.29H48.1137C48.0147 70.29 47.9652 70.29 47.9157 70.3395C47.8662 70.389 47.8662 70.389 47.8662 70.488V71.9235C47.8662 72.1215 47.8167 72.3195 47.7672 72.4185C47.7177 72.567 47.6187 72.666 47.5197 72.7155C47.4207 72.765 47.3217 72.8145 47.2227 72.864C47.1237 72.9135 47.0247 72.9135 46.9752 72.9135C46.8762 72.9135 46.7277 72.9135 46.6287 72.864C46.5297 72.8145 46.4307 72.765 46.3317 72.666C46.2327 72.567 46.1832 72.468 46.1337 72.369C46.0842 72.27 46.0347 72.1215 46.0347 71.9235V70.488C46.0347 70.4385 46.0347 70.389 45.9852 70.3395C45.9357 70.29 45.7377 70.29 45.6387 70.29Z" fill="#E2DFD1"/>
<path d="M48.4601 72.666V70.4385C48.4601 70.389 48.4601 70.3395 48.4106 70.29C48.3611 70.2405 48.3116 70.2405 48.2126 70.2405H48.7571L49.4996 71.9235L50.2421 70.2405H50.7371C50.6381 70.2405 50.5886 70.2405 50.5391 70.29C50.4896 70.3395 50.4896 70.3395 50.4896 70.4385V72.666C50.4896 72.7155 50.4896 72.765 50.5391 72.8145C50.5886 72.864 50.6381 72.864 50.7371 72.864H49.8956C49.9946 72.864 50.0441 72.864 50.0936 72.8145C50.1431 72.765 50.1431 72.765 50.1431 72.666V70.587L49.3511 72.4185L48.5591 70.587L48.4601 72.666C48.5096 72.7155 48.5096 72.765 48.5591 72.8145C48.6086 72.864 48.6581 72.864 48.7571 72.864H48.1631C48.2621 72.864 48.3116 72.864 48.3611 72.8145C48.4601 72.8145 48.4601 72.765 48.4601 72.666Z" fill="#E2DFD1"/>
<path d="M54.0539 69.4485C54.2024 69.4485 54.3014 69.4485 54.4004 69.498C54.4994 69.5475 54.5984 69.5475 54.6479 69.597C54.6974 69.6465 54.7964 69.6465 54.7964 69.696C54.7964 69.7455 54.8954 69.7455 54.8954 69.696C54.8954 69.696 54.9449 69.696 54.9449 69.6465C54.9449 69.597 54.9449 69.597 54.9449 69.5475C54.9449 69.498 54.9449 69.498 54.9449 69.4485H54.9944L55.2419 70.2405H55.1924C55.1429 70.092 55.0439 69.993 54.9449 69.894C54.8459 69.795 54.7469 69.7455 54.5984 69.6465C54.4499 69.597 54.3014 69.5475 54.1034 69.5475C53.9054 69.5475 53.7569 69.597 53.5589 69.6465C53.4104 69.7455 53.2619 69.8445 53.1134 69.993C53.0144 70.1415 52.9154 70.29 52.8164 70.488C52.7669 70.686 52.7174 70.9335 52.7174 71.181C52.7174 71.4285 52.7669 71.676 52.8164 71.874C52.8659 72.072 52.9649 72.27 53.1134 72.369C53.2124 72.5175 53.3609 72.6165 53.5589 72.7155C53.7569 72.8145 53.9054 72.8145 54.1034 72.8145C54.3014 72.8145 54.4994 72.765 54.6479 72.7155C54.7964 72.6165 54.8954 72.567 54.9944 72.468C55.0934 72.369 55.1924 72.2205 55.2419 72.1215L55.2914 72.171C55.2419 72.3195 55.1429 72.4185 54.9944 72.567C54.8954 72.666 54.7469 72.765 54.5984 72.8145C54.4499 72.9135 54.2519 72.9135 54.0044 72.9135C53.7569 72.9135 53.5589 72.864 53.3609 72.765C53.1629 72.666 53.0144 72.567 52.8659 72.4185C52.7174 72.27 52.6184 72.072 52.5194 71.874C52.4204 71.676 52.4204 71.4285 52.4204 71.181C52.4204 70.9335 52.4699 70.686 52.5194 70.488C52.6184 70.29 52.7174 70.092 52.8659 69.9435C53.0144 69.795 53.1629 69.696 53.3609 69.597C53.6084 69.498 53.8064 69.4485 54.0539 69.4485Z" fill="#E2DFD1"/>
<path d="M56.7269 70.2405C56.9249 70.2405 57.1229 70.29 57.2714 70.3395C57.4199 70.389 57.5684 70.488 57.6674 70.6365C57.7664 70.7355 57.8654 70.884 57.9149 71.082C57.9644 71.2305 58.0139 71.4285 58.0139 71.577C58.0139 71.7255 57.9644 71.9235 57.9149 72.072C57.8654 72.2205 57.7664 72.369 57.6674 72.5175C57.5684 72.6165 57.4199 72.7155 57.2714 72.8145C57.1229 72.9135 56.9249 72.9135 56.7269 72.9135C56.5289 72.9135 56.3309 72.864 56.1824 72.8145C56.0339 72.765 55.8854 72.666 55.7864 72.5175C55.6874 72.4185 55.5884 72.27 55.5389 72.072C55.4894 71.9235 55.4399 71.7255 55.4399 71.577C55.4399 71.4285 55.4894 71.2305 55.5389 71.082C55.5884 70.9335 55.6874 70.785 55.7864 70.6365C55.8854 70.488 56.0339 70.4385 56.1824 70.3395C56.3309 70.29 56.5289 70.2405 56.7269 70.2405ZM55.6874 71.577C55.6874 71.775 55.7369 71.973 55.7864 72.1215C55.8359 72.27 55.8854 72.4185 55.9844 72.5175C56.0834 72.6165 56.1824 72.7155 56.3309 72.765C56.4794 72.8145 56.6279 72.864 56.7764 72.864C56.9249 72.864 57.0734 72.8145 57.2219 72.765C57.3704 72.7155 57.4694 72.6165 57.5684 72.5175C57.6674 72.4185 57.7169 72.27 57.7664 72.1215C57.8159 71.973 57.8159 71.775 57.8159 71.577C57.8159 71.379 57.8159 71.181 57.7664 71.0325C57.7169 70.884 57.6674 70.7355 57.5684 70.6365C57.4694 70.5375 57.3704 70.4385 57.2219 70.389C57.0734 70.3395 56.9249 70.29 56.7764 70.29C56.6279 70.29 56.4794 70.3395 56.3309 70.389C56.1824 70.4385 56.0834 70.5375 55.9844 70.6365C55.8854 70.7355 55.8359 70.884 55.7864 71.0325C55.6874 71.181 55.6874 71.379 55.6874 71.577Z" fill="#E2DFD1"/>
<path d="M58.1621 70.29H59.6471L59.7956 70.884H59.7461C59.7461 70.8345 59.6966 70.7355 59.6471 70.686C59.5976 70.6365 59.5976 70.5375 59.5481 70.488C59.4986 70.4385 59.4491 70.389 59.3501 70.3395C59.2511 70.29 59.1521 70.29 59.0531 70.29H58.7561V71.28H59.1521C59.2016 71.28 59.2511 71.28 59.3006 71.2305C59.3501 71.181 59.3501 71.1315 59.3501 71.0325H59.3996V71.6265H59.3501C59.3501 71.5275 59.3501 71.478 59.3006 71.4285C59.2511 71.379 59.2511 71.379 59.1521 71.379H58.7561V72.7155C58.7561 72.765 58.7561 72.8145 58.8056 72.864C58.8551 72.9135 58.9046 72.9135 59.0036 72.9135H58.1621C58.2611 72.9135 58.3106 72.9135 58.3601 72.864C58.4096 72.8145 58.4096 72.8145 58.4096 72.7155V70.488C58.4096 70.4385 58.4096 70.389 58.3601 70.3395C58.3601 70.3395 58.2611 70.29 58.1621 70.29Z" fill="#E2DFD1"/>
<path d="M59.8452 70.29H61.3302L61.4787 70.884H61.4292C61.4292 70.8345 61.3797 70.7355 61.3302 70.686C61.2807 70.6365 61.2807 70.5375 61.2312 70.488C61.1817 70.4385 61.1322 70.389 61.0332 70.3395C60.9342 70.29 60.8352 70.29 60.7362 70.29H60.4392V71.28H60.8352C60.8847 71.28 60.9342 71.28 60.9837 71.2305C61.0332 71.181 61.0332 71.1315 61.0332 71.0325H61.0827V71.6265H61.0332C61.0332 71.5275 61.0332 71.478 60.9837 71.4285C60.9342 71.379 60.9342 71.379 60.8352 71.379H60.4392V72.7155C60.4392 72.765 60.4392 72.8145 60.4887 72.864C60.5382 72.9135 60.5877 72.9135 60.6867 72.9135H59.8452C59.9442 72.9135 59.9937 72.9135 60.0432 72.864C60.0927 72.8145 60.0927 72.8145 60.0927 72.7155V70.488C60.0927 70.4385 60.0927 70.389 60.0432 70.3395C60.0432 70.3395 59.9442 70.29 59.8452 70.29Z" fill="#E2DFD1"/>
<path d="M61.5283 70.29H63.0133L63.1618 70.884H63.1123C63.1123 70.8345 63.0628 70.7355 63.0628 70.686C63.0628 70.6365 63.0133 70.5375 62.9638 70.488C62.9143 70.4385 62.8648 70.389 62.7658 70.3395C62.6668 70.29 62.5678 70.29 62.4688 70.29H62.1718V71.28H62.5678C62.6173 71.28 62.6668 71.28 62.7163 71.2305C62.7658 71.181 62.7658 71.1315 62.7658 71.0325H62.8153V71.6265H62.7658C62.7658 71.5275 62.7658 71.478 62.7163 71.4285C62.7163 71.379 62.6668 71.379 62.5678 71.379H62.1718V72.8145H62.5678C62.7163 72.8145 62.8153 72.8145 62.8648 72.765C62.9638 72.7155 63.0133 72.666 63.0628 72.6165C63.1123 72.567 63.1618 72.5175 63.1618 72.4185C63.2113 72.369 63.2113 72.27 63.2113 72.2205H63.2608L63.1123 72.8145H61.5283C61.6273 72.8145 61.6768 72.8145 61.7263 72.765C61.7758 72.7155 61.7758 72.7155 61.7758 72.6165V70.389C61.7758 70.3395 61.7758 70.29 61.7263 70.2405C61.6768 70.191 61.6273 70.29 61.5283 70.29Z" fill="#E2DFD1"/>
<path d="M42.5202 77.0715C42.5697 77.22 42.6192 77.319 42.6687 77.4675C42.7182 77.616 42.7677 77.715 42.8667 77.814C42.9162 77.913 43.0152 78.012 43.1142 78.0615C43.2132 78.111 43.3122 78.1605 43.4112 78.1605C43.5597 78.1605 43.6587 78.111 43.7577 78.012C43.8567 77.913 43.9062 77.814 43.9062 77.616C43.9062 77.4675 43.8567 77.3685 43.8072 77.2695C43.7577 77.1705 43.6587 77.121 43.5597 77.022C43.4607 76.9725 43.3617 76.8735 43.2627 76.824C43.1637 76.7745 43.0647 76.6755 42.9657 76.626C42.8667 76.5765 42.8172 76.4775 42.7182 76.428C42.6687 76.329 42.6192 76.23 42.6192 76.131C42.6192 76.0815 42.6192 75.9825 42.6687 75.933C42.7182 75.8835 42.7182 75.834 42.7677 75.7845C42.8172 75.735 42.8667 75.6855 42.9657 75.6855C43.0647 75.636 43.1142 75.636 43.2132 75.636C43.3122 75.636 43.3617 75.636 43.4112 75.636C43.4607 75.636 43.5102 75.6855 43.5597 75.6855C43.6092 75.6855 43.6092 75.735 43.6587 75.735C43.7082 75.735 43.7082 75.735 43.7082 75.735C43.7082 75.735 43.7082 75.735 43.7082 75.6855V75.636V75.5865H43.7577L43.8567 76.1805H43.8072C43.7577 76.0815 43.7082 75.9825 43.6587 75.933C43.6092 75.8835 43.5597 75.7845 43.4607 75.735C43.4112 75.6855 43.3122 75.636 43.2132 75.636C43.1142 75.636 43.0152 75.6855 42.9162 75.735C42.8172 75.7845 42.8172 75.8835 42.8172 75.9825C42.8172 76.0815 42.8667 76.1805 42.9162 76.23C42.9657 76.2795 43.0647 76.3785 43.1637 76.428C43.2627 76.4775 43.3617 76.527 43.4607 76.626C43.5597 76.6755 43.6587 76.7745 43.7577 76.824C43.8567 76.923 43.9062 76.9725 44.0052 77.0715C44.0547 77.1705 44.1042 77.2695 44.1042 77.418C44.1042 77.517 44.1042 77.5665 44.0547 77.6655C44.0052 77.7645 44.0052 77.814 43.9062 77.8635C43.8567 77.913 43.7577 77.9625 43.6587 78.012C43.5597 78.0615 43.4607 78.0615 43.3617 78.0615C43.2627 78.0615 43.1637 78.0615 43.0647 78.012C42.9657 77.9625 42.9162 77.913 42.8172 77.8635C42.7677 77.814 42.7182 77.7645 42.6687 77.715C42.6192 77.6655 42.6192 77.6655 42.5697 77.6655C42.5697 77.6655 42.5697 77.6655 42.5202 77.715V77.7645V77.814H42.4707V77.0715H42.5202Z" fill="#E2DFD1"/>
<path d="M44.2031 78.111C44.2526 78.111 44.3021 78.111 44.3516 78.0615C44.4011 78.012 44.4011 78.012 44.4011 77.9625V76.3785C44.4011 76.329 44.4011 76.2795 44.3516 76.2795C44.3021 76.2795 44.2526 76.23 44.2031 76.23H44.7971C44.7476 76.23 44.6981 76.23 44.6486 76.2795C44.5991 76.2795 44.5991 76.329 44.5991 76.3785V77.9625C44.5991 78.012 44.5991 78.0615 44.6486 78.0615C44.6981 78.0615 44.7476 78.111 44.7971 78.111H44.2031Z" fill="#E2DFD1"/>
<path d="M44.896 78.111C44.9455 78.111 44.995 78.111 45.0445 78.0615C45.094 78.0615 45.094 78.012 45.094 77.9625V76.3785C45.094 76.329 45.094 76.2795 45.0445 76.2795C44.995 76.2795 44.9455 76.23 44.896 76.23H45.292L46.084 77.616V76.3785C46.084 76.329 46.084 76.2795 46.0345 76.2795C45.985 76.2795 45.9355 76.23 45.886 76.23H46.3315C46.282 76.23 46.2325 76.23 46.183 76.2795C46.1335 76.2795 46.1335 76.329 46.1335 76.3785V78.1605L45.1435 76.428V78.012C45.1435 78.0615 45.1435 78.111 45.193 78.111C45.2425 78.111 45.292 78.1605 45.3415 78.1605L44.896 78.111Z" fill="#E2DFD1"/>
<path d="M47.2723 76.1805C47.3713 76.1805 47.4208 76.1805 47.5198 76.23C47.5693 76.23 47.6189 76.2795 47.6684 76.2795C47.7179 76.2795 47.7673 76.329 47.7673 76.329H47.8168C47.8168 76.329 47.8168 76.329 47.8168 76.2795V76.23V76.1805L47.9654 76.6755H47.9159C47.8664 76.5765 47.8168 76.527 47.7673 76.428C47.7178 76.3785 47.6188 76.329 47.5693 76.2795C47.5198 76.23 47.3713 76.23 47.2723 76.23C47.0743 76.23 46.8763 76.329 46.7773 76.4775C46.6288 76.626 46.5793 76.8735 46.5793 77.1705C46.5793 77.319 46.5793 77.4675 46.6288 77.5665C46.6783 77.6655 46.7278 77.7645 46.7773 77.8635C46.8268 77.9625 46.9258 78.012 47.0248 78.012C47.1238 78.0615 47.2228 78.0615 47.2723 78.0615C47.4208 78.0615 47.5198 78.0615 47.6188 78.012C47.7178 77.9625 47.7673 77.913 47.8168 77.8635C47.8663 77.814 47.9159 77.715 47.9654 77.6655H48.0148C47.9653 77.7645 47.9158 77.814 47.8663 77.913C47.8168 77.9625 47.7178 78.012 47.6188 78.0615C47.5198 78.111 47.4208 78.1605 47.2723 78.1605C47.1238 78.1605 47.0249 78.1605 46.9259 78.111C46.8269 78.0615 46.7278 78.012 46.6288 77.913C46.5298 77.814 46.4804 77.715 46.4309 77.616C46.3814 77.517 46.3813 77.3685 46.3813 77.22C46.3813 77.0715 46.3814 76.923 46.4309 76.824C46.4804 76.725 46.5298 76.626 46.6288 76.527C46.7278 76.428 46.7773 76.3785 46.8763 76.329C47.0248 76.23 47.1238 76.1805 47.2723 76.1805Z" fill="#E2DFD1"/>
<path d="M48.1138 76.23H49.2028L49.3018 76.6755H49.2523C49.2523 76.626 49.2028 76.5765 49.2028 76.527C49.2028 76.4775 49.1533 76.428 49.1038 76.3785C49.0543 76.329 49.0048 76.329 48.9553 76.2795C48.9058 76.2795 48.8068 76.23 48.7078 76.23H48.5098V76.923H48.8068C48.8563 76.923 48.9058 76.923 48.9058 76.8735C48.9058 76.824 48.9553 76.7745 48.9553 76.725H49.0048V77.1705H48.9553C48.9553 77.121 48.9553 77.0715 48.9058 77.022C48.8563 76.9725 48.8563 76.9725 48.8068 76.9725H48.5098V78.012H48.8068C48.9058 78.012 48.9553 78.012 49.0543 77.9625C49.1038 77.9625 49.1533 77.913 49.2028 77.8635C49.2523 77.814 49.2523 77.7645 49.3018 77.715C49.3018 77.6655 49.3513 77.616 49.3513 77.5665H49.4008L49.3018 78.012H48.1633C48.2128 78.012 48.2623 78.012 48.3118 77.9625C48.3613 77.9625 48.3613 77.913 48.3613 77.8635V76.2795C48.3613 76.23 48.3613 76.1805 48.3118 76.1805C48.2623 76.23 48.2128 76.23 48.1138 76.23Z" fill="#E2DFD1"/>
<path d="M51.7767 76.131C51.7767 75.9825 51.7272 75.8835 51.6777 75.7845C51.5787 75.735 51.5292 75.6855 51.3807 75.6855C51.2817 75.6855 51.1827 75.735 51.1332 75.7845C51.0837 75.834 51.0342 75.933 50.9847 75.9825C50.9352 76.0815 50.8857 76.1805 50.8857 76.2795L50.7867 75.9825C50.8362 75.933 50.8857 75.834 50.9352 75.7845C50.9847 75.735 51.0342 75.6855 51.1332 75.636C51.2322 75.5865 51.3312 75.5865 51.4302 75.5865C51.5292 75.5865 51.5787 75.5865 51.6777 75.636C51.7767 75.636 51.8262 75.6855 51.8757 75.735C51.9252 75.7845 51.9747 75.834 52.0242 75.8835C52.0737 75.933 52.0737 76.032 52.0737 76.131C52.0737 76.23 52.0737 76.329 52.0242 76.428C51.9747 76.527 51.9252 76.626 51.8262 76.6755C51.7767 76.7745 51.6777 76.824 51.5787 76.923C51.4797 77.022 51.3807 77.0715 51.2817 77.1705C51.1827 77.2695 51.0837 77.3685 51.0342 77.4675C50.9352 77.5665 50.8857 77.6655 50.8362 77.814H51.4302C51.5292 77.814 51.6282 77.814 51.6777 77.7645C51.7272 77.715 51.8262 77.715 51.8262 77.6655C51.8757 77.616 51.9252 77.5665 51.9252 77.517C51.9252 77.4675 51.9747 77.418 51.9747 77.319H52.0242L51.8757 78.012H50.6382C50.6877 77.8635 50.7372 77.7645 50.8362 77.616C50.9352 77.517 50.9847 77.3685 51.0837 77.2695C51.1827 77.1705 51.2322 77.0715 51.3312 76.923C51.4302 76.7745 51.4797 76.725 51.5787 76.626C51.6777 76.527 51.7272 76.428 51.7272 76.329C51.7767 76.329 51.7767 76.23 51.7767 76.131Z" fill="#E2DFD1"/>
<path d="M53.1626 75.636C53.3111 75.636 53.4101 75.6855 53.5091 75.735C53.6081 75.7845 53.7071 75.8835 53.7566 75.9825C53.8061 76.0815 53.8556 76.23 53.9051 76.3785C53.9546 76.527 53.9546 76.6755 53.9546 76.8735C53.9546 77.022 53.9546 77.22 53.9051 77.3685C53.8556 77.517 53.8061 77.6655 53.7566 77.7645C53.7071 77.8635 53.6081 77.9625 53.5091 78.012C53.4101 78.0615 53.2616 78.111 53.1626 78.111C53.0636 78.111 52.9151 78.0615 52.8161 78.012C52.7171 77.9625 52.6181 77.8635 52.5686 77.7645C52.5191 77.6655 52.4696 77.517 52.4201 77.3685C52.3706 77.22 52.3706 77.0715 52.3706 76.8735C52.3706 76.725 52.3706 76.527 52.4201 76.3785C52.4696 76.23 52.5191 76.0815 52.5686 75.9825C52.6181 75.8835 52.7171 75.7845 52.8161 75.735C52.9151 75.6855 53.0141 75.636 53.1626 75.636ZM52.5686 76.8735C52.5686 77.022 52.5686 77.22 52.6181 77.319C52.6181 77.4675 52.6676 77.5665 52.7171 77.715C52.7666 77.8635 52.8161 77.913 52.9151 77.9625C52.9646 78.012 53.0636 78.0615 53.1626 78.0615C53.2616 78.0615 53.3606 78.012 53.4101 77.9625C53.4596 77.913 53.5586 77.814 53.6081 77.715C53.6576 77.616 53.7071 77.4675 53.7071 77.319C53.7071 77.1705 53.7566 77.022 53.7566 76.8735C53.7566 76.725 53.7566 76.5765 53.7071 76.428C53.7071 76.2795 53.6576 76.1805 53.6081 76.032C53.5586 75.933 53.5091 75.834 53.4101 75.7845C53.3606 75.735 53.2616 75.6855 53.1626 75.6855C53.0636 75.6855 52.9646 75.735 52.9151 75.7845C52.8656 75.834 52.7666 75.933 52.7171 76.032C52.6676 76.131 52.6181 76.2795 52.6181 76.428C52.5686 76.527 52.5686 76.725 52.5686 76.8735Z" fill="#E2DFD1"/>
<path d="M55.1922 76.131C55.1922 75.9825 55.1427 75.8835 55.0932 75.7845C54.9942 75.735 54.9447 75.6855 54.7962 75.6855C54.6972 75.6855 54.5982 75.735 54.5487 75.7845C54.4992 75.834 54.4497 75.933 54.4002 75.9825C54.3507 76.0815 54.3012 76.1805 54.3012 76.2795L54.2022 75.9825C54.2517 75.933 54.3012 75.834 54.3507 75.7845C54.4002 75.735 54.4497 75.6855 54.5487 75.636C54.6477 75.5865 54.7467 75.5865 54.8457 75.5865C54.9447 75.5865 54.9942 75.5865 55.0932 75.636C55.1922 75.636 55.2417 75.6855 55.2912 75.735C55.3407 75.7845 55.3902 75.834 55.4397 75.8835C55.4892 75.933 55.4892 76.032 55.4892 76.131C55.4892 76.23 55.4892 76.329 55.4397 76.428C55.3902 76.527 55.3407 76.626 55.2417 76.6755C55.1922 76.7745 55.0932 76.824 54.9942 76.923C54.8952 77.022 54.7962 77.0715 54.6972 77.1705C54.5982 77.2695 54.4992 77.3685 54.4497 77.4675C54.3507 77.5665 54.3012 77.6655 54.2517 77.814H54.8457C54.9447 77.814 55.0437 77.814 55.0932 77.7645C55.1427 77.715 55.2417 77.715 55.2417 77.6655C55.2912 77.616 55.3407 77.5665 55.3407 77.517C55.3407 77.4675 55.3902 77.418 55.3902 77.319H55.4397L55.2912 78.012H54.0537C54.1032 77.8635 54.1527 77.7645 54.2517 77.616C54.3507 77.517 54.4002 77.3685 54.4992 77.2695C54.5982 77.1705 54.6477 77.0715 54.7467 76.923C54.8457 76.7745 54.8952 76.725 54.9942 76.626C55.0932 76.527 55.1427 76.428 55.1427 76.329C55.1922 76.329 55.1922 76.23 55.1922 76.131Z" fill="#E2DFD1"/>
<path d="M55.687 76.1805L56.182 75.6855H56.281V77.9625C56.281 78.012 56.281 78.0615 56.3305 78.0615C56.38 78.0615 56.4295 78.111 56.5285 78.111H55.8355C55.9345 78.111 55.984 78.111 56.0335 78.0615C56.083 78.0615 56.083 78.012 56.083 77.9625V76.1805C56.083 76.131 56.083 76.0815 56.083 76.0815L56.0335 76.032H55.984C55.9345 76.032 55.9345 76.0815 55.9345 76.0815C55.786 76.131 55.7365 76.1805 55.687 76.1805Z" fill="#E2DFD1"/>
</svg>
