<svg width="117" height="117" viewBox="0 0 117 117" fill="none" xmlns="http://www.w3.org/2000/svg">
<g clip-path="url(#clip0_133_299)">
<path fill-rule="evenodd" clip-rule="evenodd" d="M57.0033 1.2557C88.4628 0.562242 114.569 25.5087 115.263 57.0024C115.956 88.462 91.01 114.568 59.5163 115.262C28.0568 115.956 1.95072 91.0092 1.25651 59.5155C0.563055 28.056 25.5096 1.94991 57.0033 1.2557ZM64.2055 39.3114L74.8402 39.077L74.559 26.3222L63.9243 26.5567C55.7175 26.7376 49.1964 33.5526 49.3774 41.7594L49.5175 48.1197L41.003 48.3074L41.2841 61.0622L49.7987 60.8745L50.5479 94.8644L63.3027 94.5833L62.5535 60.5933L73.1882 60.3589L75.0271 47.5574L62.2723 47.8386L62.1321 41.4783C62.1065 40.3156 63.0429 39.3371 64.2055 39.3114Z" fill="white"/>
</g>
<defs>
<clipPath id="clip0_133_299">
<rect width="114" height="114" fill="white" transform="translate(0 2.51221) rotate(-1.26275)"/>
</clipPath>
</defs>
</svg>
