<svg width="114" height="114" viewBox="0 0 114 114" fill="none" xmlns="http://www.w3.org/2000/svg">
<g clip-path="url(#clip0_133_301)">
<path fill-rule="evenodd" clip-rule="evenodd" d="M57.0171 0C88.4842 0 114.034 25.5157 114.034 57.0171C114.034 88.4842 88.5184 114.034 57.0171 114.034C25.55 114.034 0 88.5184 0 57.0171C0 25.55 25.5157 0 57.0171 0ZM43.6778 25.721H70.3564C80.378 25.721 88.5527 33.8272 88.5527 43.6778V70.288C88.5527 80.1728 80.378 88.2448 70.3564 88.2448H43.6778C33.6562 88.2448 25.4815 80.1728 25.4815 70.288V43.6778C25.4815 33.793 33.6904 25.721 43.6778 25.721ZM56.8461 40.1206C66.5941 40.1206 74.495 48.0216 74.495 57.7696C74.495 67.5175 66.5941 75.4185 56.8461 75.4185C47.0981 75.4185 39.1971 67.5175 39.1971 57.7696C39.1971 48.0216 47.0981 40.1206 56.8461 40.1206ZM56.8461 46.072C63.2763 46.072 68.5094 51.3051 68.5094 57.7354C68.5094 64.1656 63.2763 69.3987 56.8461 69.3987C50.3816 69.3987 45.1827 64.1656 45.1827 57.7354C45.1827 51.3051 50.4158 46.072 56.8461 46.072ZM73.9136 37.658C75.4869 37.658 76.7867 38.9235 76.7867 40.5311C76.7867 42.1044 75.5211 43.4041 73.9136 43.4041C72.3402 43.4041 71.0405 42.1386 71.0405 40.5311C71.0405 38.9577 72.306 37.658 73.9136 37.658ZM45.8668 30.8173H68.1674C76.5472 30.8173 83.3879 37.6238 83.3879 45.9694V68.4068C83.3879 76.7525 76.5472 83.559 68.1674 83.559H45.8668C37.4869 83.559 30.6463 76.7525 30.6463 68.4068V45.9694C30.6463 37.6238 37.4869 30.8173 45.8668 30.8173Z" fill="white"/>
</g>
<defs>
<clipPath id="clip0_133_301">
<rect width="114" height="114" fill="white"/>
</clipPath>
</defs>
</svg>
