<svg width="114" height="114" viewBox="0 0 114 114" fill="none" xmlns="http://www.w3.org/2000/svg">
<g clip-path="url(#clip0_133_296)">
<path fill-rule="evenodd" clip-rule="evenodd" d="M57.0171 0C88.4843 0 114.034 25.5158 114.034 57.0171C114.034 88.4843 88.5185 114.034 57.0171 114.034C25.55 114.034 0 88.5185 0 57.0171C0 25.55 25.5158 0 57.0171 0ZM80.9595 32.5617C74.9739 26.5761 67.0387 23.2925 58.5563 23.2925C41.1125 23.2925 26.9181 37.4869 26.9181 54.9307C26.9181 60.5059 28.3888 65.9442 31.1593 70.7327L26.6787 87.1503L43.4725 82.7381C48.09 85.2691 53.2889 86.6031 58.5905 86.6031C76.0342 86.6031 90.2286 72.4086 90.2286 54.9649C90.2286 46.5167 86.9451 38.5473 80.9595 32.5617ZM58.5905 81.2673C53.8704 81.2673 49.2187 80.0018 45.1827 77.6076L44.225 77.0261L34.2718 79.6256L36.9397 69.9118L36.324 68.9199C33.6904 64.7471 32.288 59.8902 32.288 54.9307C32.288 40.4284 44.0882 28.6283 58.6247 28.6283C65.6364 28.6283 72.2718 31.3645 77.2313 36.324C82.1908 41.3177 84.9271 47.8848 84.9271 54.9307C84.9271 69.4329 73.1269 81.2673 58.6247 81.2673H58.5905ZM73.0243 61.5662C72.2376 61.1557 68.3384 59.2745 67.6202 59.0009C66.9019 58.7273 66.3546 58.5905 65.8416 59.4113C65.3285 60.198 63.7894 61.9766 63.3447 62.5239C62.8659 63.0369 62.4212 63.1395 61.6346 62.7291C60.8479 62.3186 58.2826 61.4978 55.2727 58.7957C52.9127 56.7093 51.3393 54.1098 50.8605 53.3231C50.3816 52.5365 50.7921 52.0918 51.2025 51.7156C51.5788 51.3735 51.9892 50.7921 52.3996 50.3132C52.8101 49.8344 52.9127 49.5266 53.1863 48.9793C53.4599 48.4662 53.3231 47.9874 53.1179 47.577C52.9127 47.1665 51.3393 43.3015 50.6895 41.694C50.0396 40.1548 49.3897 40.36 48.9109 40.3258C48.432 40.2916 47.919 40.2916 47.4059 40.2916C46.8929 40.2916 46.0378 40.4968 45.2853 41.2835C44.5671 42.0702 42.5149 43.9856 42.5149 47.8848C42.5149 51.784 45.3537 55.5464 45.73 56.0594C46.1404 56.5725 51.3051 64.5761 59.2403 67.9964C61.1215 68.8173 62.5923 69.2961 63.7552 69.6724C65.6364 70.2538 67.3807 70.1854 68.7489 69.9802C70.2538 69.7408 73.4347 68.0648 74.0846 66.2178C74.7345 64.3708 74.7345 62.7975 74.5635 62.4554C74.3924 62.1134 73.8452 61.9082 73.0585 61.4978L73.0243 61.5662Z" fill="white"/>
</g>
<defs>
<clipPath id="clip0_133_296">
<rect width="114" height="114" fill="white"/>
</clipPath>
</defs>
</svg>
