<svg width="49" height="49" viewBox="0 0 49 49" fill="none" xmlns="http://www.w3.org/2000/svg">
<path d="M44.4541 28.8162L47.9473 11.7811H13.5229L12.3266 6.11543L1.95234 1.05273L1.05273 2.84238L10.5273 7.41699L15.3125 30.2709H42.9707C42.9707 30.2709 45.6982 31.984 44.6455 34.1469C44.1766 34.8168 43.4492 35.6398 42.1477 35.6398H14.6234V37.6113H42.1572C44.0521 37.6113 45.6504 36.616 46.55 35.0273C48.3109 31.7352 44.4541 28.8162 44.4541 28.8162ZM17.016 28.2707L13.9248 13.7621H45.5547L42.5592 28.2707H17.016Z" fill="white"/>
<path d="M20.3084 40.3963C18.2125 40.3963 16.5186 42.0807 16.5186 44.167C16.5186 46.2533 18.2125 47.9377 20.3084 47.9377C22.4043 47.9377 24.0982 46.2533 24.0982 44.167C24.0982 42.0807 22.4043 40.3963 20.3084 40.3963ZM20.3084 45.9567C19.3131 45.9567 18.5092 45.1623 18.5092 44.167C18.5092 43.1717 19.3035 42.3774 20.3084 42.3774C21.3133 42.3774 22.1076 43.1717 22.1076 44.167C22.1076 45.1623 21.3037 45.9567 20.3084 45.9567Z" fill="white"/>
<path d="M40.6644 40.3963C38.5685 40.3963 36.8745 42.0807 36.8745 44.167C36.8745 46.2533 38.5685 47.9473 40.6644 47.9473C42.7603 47.9473 44.5595 46.2629 44.4542 44.1766C44.4542 42.0902 42.7603 40.3963 40.6644 40.3963ZM42.4636 44.1766C42.4636 45.1719 41.6692 45.9662 40.6644 45.9662C39.6595 45.9662 38.8651 45.1719 38.8651 44.1766C38.8651 43.1813 39.6595 42.3869 40.6644 42.3869C41.6692 42.3869 42.5593 43.1813 42.4636 44.1766Z" fill="white"/>
</svg>
