<svg width="165" height="78" viewBox="0 0 165 78" fill="none" xmlns="http://www.w3.org/2000/svg">
<rect width="165" height="78" rx="39" fill="#6E4C4C"/>
<path d="M53.15 32.15C52.57 30.93 51.73 29.99 50.63 29.33C49.53 28.65 48.25 28.31 46.79 28.31C45.33 28.31 44.01 28.65 42.83 29.33C41.67 29.99 40.75 30.95 40.07 32.21C39.41 33.45 39.08 34.89 39.08 36.53C39.08 38.17 39.41 39.61 40.07 40.85C40.75 42.09 41.67 43.05 42.83 43.73C44.01 44.39 45.33 44.72 46.79 44.72C48.83 44.72 50.51 44.11 51.83 42.89C53.15 41.67 53.92 40.02 54.14 37.94H45.8V35.72H57.05V37.82C56.89 39.54 56.35 41.12 55.43 42.56C54.51 43.98 53.3 45.11 51.8 45.95C50.3 46.77 48.63 47.18 46.79 47.18C44.85 47.18 43.08 46.73 41.48 45.83C39.88 44.91 38.61 43.64 37.67 42.02C36.75 40.4 36.29 38.57 36.29 36.53C36.29 34.49 36.75 32.66 37.67 31.04C38.61 29.4 39.88 28.13 41.48 27.23C43.08 26.31 44.85 25.85 46.79 25.85C49.01 25.85 50.97 26.4 52.67 27.5C54.39 28.6 55.64 30.15 56.42 32.15H53.15ZM63.3896 33.23C63.8696 32.29 64.5496 31.56 65.4296 31.04C66.3296 30.52 67.4196 30.26 68.6996 30.26V33.08H67.9796C64.9196 33.08 63.3896 34.74 63.3896 38.06V47H60.6596V30.56H63.3896V33.23ZM70.831 38.72C70.831 37.04 71.171 35.57 71.851 34.31C72.531 33.03 73.461 32.04 74.641 31.34C75.841 30.64 77.171 30.29 78.631 30.29C80.071 30.29 81.321 30.6 82.381 31.22C83.441 31.84 84.231 32.62 84.751 33.56V30.56H87.511V47H84.751V43.94C84.211 44.9 83.401 45.7 82.321 46.34C81.261 46.96 80.021 47.27 78.601 47.27C77.141 47.27 75.821 46.91 74.641 46.19C73.461 45.47 72.531 44.46 71.851 43.16C71.171 41.86 70.831 40.38 70.831 38.72ZM84.751 38.75C84.751 37.51 84.501 36.43 84.001 35.51C83.501 34.59 82.821 33.89 81.961 33.41C81.121 32.91 80.191 32.66 79.171 32.66C78.151 32.66 77.221 32.9 76.381 33.38C75.541 33.86 74.871 34.56 74.371 35.48C73.871 36.4 73.621 37.48 73.621 38.72C73.621 39.98 73.871 41.08 74.371 42.02C74.871 42.94 75.541 43.65 76.381 44.15C77.221 44.63 78.151 44.87 79.171 44.87C80.191 44.87 81.121 44.63 81.961 44.15C82.821 43.65 83.501 42.94 84.001 42.02C84.501 41.08 84.751 39.99 84.751 38.75ZM100.134 30.26C102.134 30.26 103.754 30.87 104.994 32.09C106.234 33.29 106.854 35.03 106.854 37.31V47H104.154V37.7C104.154 36.06 103.744 34.81 102.924 33.95C102.104 33.07 100.984 32.63 99.5645 32.63C98.1245 32.63 96.9745 33.08 96.1145 33.98C95.2745 34.88 94.8545 36.19 94.8545 37.91V47H92.1245V30.56H94.8545V32.9C95.3945 32.06 96.1245 31.41 97.0445 30.95C97.9845 30.49 99.0145 30.26 100.134 30.26ZM118.484 47.27C116.944 47.27 115.544 46.92 114.284 46.22C113.044 45.52 112.064 44.53 111.344 43.25C110.644 41.95 110.294 40.45 110.294 38.75C110.294 37.07 110.654 35.59 111.374 34.31C112.114 33.01 113.114 32.02 114.374 31.34C115.634 30.64 117.044 30.29 118.604 30.29C120.164 30.29 121.574 30.64 122.834 31.34C124.094 32.02 125.084 33 125.804 34.28C126.544 35.56 126.914 37.05 126.914 38.75C126.914 40.45 126.534 41.95 125.774 43.25C125.034 44.53 124.024 45.52 122.744 46.22C121.464 46.92 120.044 47.27 118.484 47.27ZM118.484 44.87C119.464 44.87 120.384 44.64 121.244 44.18C122.104 43.72 122.794 43.03 123.314 42.11C123.854 41.19 124.124 40.07 124.124 38.75C124.124 37.43 123.864 36.31 123.344 35.39C122.824 34.47 122.144 33.79 121.304 33.35C120.464 32.89 119.554 32.66 118.574 32.66C117.574 32.66 116.654 32.89 115.814 33.35C114.994 33.79 114.334 34.47 113.834 35.39C113.334 36.31 113.084 37.43 113.084 38.75C113.084 40.09 113.324 41.22 113.804 42.14C114.304 43.06 114.964 43.75 115.784 44.21C116.604 44.65 117.504 44.87 118.484 44.87Z" fill="#F5ECEC"/>
</svg>
