<svg width="165" height="78" viewBox="0 0 165 78" fill="none" xmlns="http://www.w3.org/2000/svg">
<rect width="165" height="78" rx="39" fill="#6E4C4C"/>
<path d="M56.52 26.24V47H53.79V31.52L46.89 47H44.97L38.04 31.49V47H35.31V26.24H38.25L45.93 43.4L53.61 26.24H56.52ZM68.3198 47.27C66.7798 47.27 65.3798 46.92 64.1198 46.22C62.8798 45.52 61.8998 44.53 61.1798 43.25C60.4798 41.95 60.1298 40.45 60.1298 38.75C60.1298 37.07 60.4898 35.59 61.2098 34.31C61.9498 33.01 62.9498 32.02 64.2098 31.34C65.4698 30.64 66.8798 30.29 68.4398 30.29C69.9998 30.29 71.4098 30.64 72.6698 31.34C73.9298 32.02 74.9198 33 75.6398 34.28C76.3798 35.56 76.7498 37.05 76.7498 38.75C76.7498 40.45 76.3698 41.95 75.6098 43.25C74.8698 44.53 73.8598 45.52 72.5798 46.22C71.2998 46.92 69.8798 47.27 68.3198 47.27ZM68.3198 44.87C69.2998 44.87 70.2198 44.64 71.0798 44.18C71.9398 43.72 72.6298 43.03 73.1498 42.11C73.6898 41.19 73.9598 40.07 73.9598 38.75C73.9598 37.43 73.6998 36.31 73.1798 35.39C72.6598 34.47 71.9798 33.79 71.1398 33.35C70.2998 32.89 69.3898 32.66 68.4098 32.66C67.4098 32.66 66.4898 32.89 65.6498 33.35C64.8298 33.79 64.1698 34.47 63.6698 35.39C63.1698 36.31 62.9198 37.43 62.9198 38.75C62.9198 40.09 63.1598 41.22 63.6398 42.14C64.1398 43.06 64.7998 43.75 65.6198 44.21C66.4398 44.65 67.3398 44.87 68.3198 44.87ZM83.0693 24.8V47H80.3393V24.8H83.0693ZM89.1321 27.89C88.6121 27.89 88.1721 27.71 87.8121 27.35C87.4521 26.99 87.2721 26.55 87.2721 26.03C87.2721 25.51 87.4521 25.07 87.8121 24.71C88.1721 24.35 88.6121 24.17 89.1321 24.17C89.6321 24.17 90.0521 24.35 90.3921 24.71C90.7521 25.07 90.9321 25.51 90.9321 26.03C90.9321 26.55 90.7521 26.99 90.3921 27.35C90.0521 27.71 89.6321 27.89 89.1321 27.89ZM90.4521 30.56V47H87.7221V30.56H90.4521ZM94.0849 38.72C94.0849 37.04 94.4249 35.57 95.1049 34.31C95.7849 33.03 96.7149 32.04 97.8949 31.34C99.0949 30.64 100.435 30.29 101.915 30.29C103.195 30.29 104.385 30.59 105.485 31.19C106.585 31.77 107.425 32.54 108.005 33.5V24.8H110.765V47H108.005V43.91C107.465 44.89 106.665 45.7 105.605 46.34C104.545 46.96 103.305 47.27 101.885 47.27C100.425 47.27 99.0949 46.91 97.8949 46.19C96.7149 45.47 95.7849 44.46 95.1049 43.16C94.4249 41.86 94.0849 40.38 94.0849 38.72ZM108.005 38.75C108.005 37.51 107.755 36.43 107.255 35.51C106.755 34.59 106.075 33.89 105.215 33.41C104.375 32.91 103.445 32.66 102.425 32.66C101.405 32.66 100.475 32.9 99.6349 33.38C98.7949 33.86 98.1249 34.56 97.6249 35.48C97.1249 36.4 96.8749 37.48 96.8749 38.72C96.8749 39.98 97.1249 41.08 97.6249 42.02C98.1249 42.94 98.7949 43.65 99.6349 44.15C100.475 44.63 101.405 44.87 102.425 44.87C103.445 44.87 104.375 44.63 105.215 44.15C106.075 43.65 106.755 42.94 107.255 42.02C107.755 41.08 108.005 39.99 108.005 38.75ZM122.548 47.27C121.008 47.27 119.608 46.92 118.348 46.22C117.108 45.52 116.128 44.53 115.408 43.25C114.708 41.95 114.358 40.45 114.358 38.75C114.358 37.07 114.718 35.59 115.438 34.31C116.178 33.01 117.178 32.02 118.438 31.34C119.698 30.64 121.108 30.29 122.668 30.29C124.228 30.29 125.638 30.64 126.898 31.34C128.158 32.02 129.148 33 129.868 34.28C130.608 35.56 130.978 37.05 130.978 38.75C130.978 40.45 130.598 41.95 129.838 43.25C129.098 44.53 128.088 45.52 126.808 46.22C125.528 46.92 124.108 47.27 122.548 47.27ZM122.548 44.87C123.528 44.87 124.448 44.64 125.308 44.18C126.168 43.72 126.858 43.03 127.378 42.11C127.918 41.19 128.188 40.07 128.188 38.75C128.188 37.43 127.928 36.31 127.408 35.39C126.888 34.47 126.208 33.79 125.368 33.35C124.528 32.89 123.618 32.66 122.638 32.66C121.638 32.66 120.718 32.89 119.878 33.35C119.058 33.79 118.398 34.47 117.898 35.39C117.398 36.31 117.148 37.43 117.148 38.75C117.148 40.09 117.388 41.22 117.868 42.14C118.368 43.06 119.028 43.75 119.848 44.21C120.668 44.65 121.568 44.87 122.548 44.87Z" fill="#F5ECEC"/>
</svg>
