<?xml version="1.0" encoding="utf-8"?>
<!-- Generator: Adobe Illustrator 27.0.0, SVG Export Plug-In . SVG Version: 6.00 Build 0)  -->
<svg version="1.1" xmlns="http://www.w3.org/2000/svg" xmlns:xlink="http://www.w3.org/1999/xlink" x="0px" y="0px"
	 viewBox="0 0 200 200" style="enable-background:new 0 0 200 200;" xml:space="preserve">
<style type="text/css">
	.st0{fill:#FFFFFF;}
	.st1{fill:none;stroke:#FFFFFF;stroke-miterlimit:10;}
	.st2{fill-rule:evenodd;clip-rule:evenodd;fill:#FFFFFF;}
</style>
<g id="Capa_3">
	<path class="st0" d="M100,3C46.4,3,3,46.4,3,100c0,53.6,43.4,97,97,97s97-43.4,97-97C197,46.4,153.6,3,100,3z M100,191.5
		c-50.5,0-91.5-40.9-91.5-91.5C8.5,49.5,49.5,8.5,100,8.5s91.5,40.9,91.5,91.5C191.5,150.5,150.5,191.5,100,191.5z"/>
</g>
<g id="Capa_2">
	<circle class="st1" cx="100" cy="100" r="88"/>
	<g>
		<path class="st0" d="M40.3,83.6v-0.1h9c1.5,0,2.9,0.1,4.3,0.4c1.4,0.3,2.6,0.7,3.6,1.3c1.1,0.6,1.9,1.5,2.5,2.5
			c0.6,1,0.9,2.4,0.9,3.9c0,1.2-0.2,2.3-0.6,3.2c-0.4,0.9-1,1.7-1.6,2.3c-0.7,0.6-1.5,1.1-2.5,1.5c-1,0.4-2,0.7-3.1,0.8l7.9,12.6
			c0.4,0.7,1,1.2,1.6,1.4c0.6,0.2,1.5,0.4,2.5,0.4v0.2h-9.6V114c1,0,1.6-0.1,2-0.4s0.3-0.7-0.1-1.4L49.5,100h-3.2v12.3
			c0,0.7,0.2,1.2,0.7,1.4c0.5,0.2,1.2,0.4,2.2,0.4v0.2h-9V114c1.1,0,1.8-0.1,2.3-0.4s0.7-0.7,0.7-1.4V85.5c0-0.7-0.2-1.2-0.7-1.5
			C42.2,83.8,41.4,83.6,40.3,83.6z M46.3,99.5h2.9c0.9,0,1.9-0.1,2.9-0.2c1-0.1,1.9-0.4,2.8-1c0.9-0.5,1.6-1.3,2.1-2.3
			c0.5-1,0.8-2.5,0.8-4.2s-0.3-3.2-0.8-4.2c-0.5-1-1.2-1.8-2.1-2.3c-0.9-0.5-1.8-0.8-2.8-0.9c-1-0.1-2-0.2-2.9-0.2h-2.9V99.5z"/>
		<path class="st0" d="M64.5,90.5H78l1.4,5.6L79,96.3c-0.2-0.7-0.4-1.3-0.7-1.9c-0.2-0.6-0.6-1.2-1.1-1.7c-0.5-0.5-1.1-0.9-1.9-1.2
			c-0.8-0.3-1.8-0.5-2.9-0.5h-2.8v9h3.5c0.6,0,1.1-0.2,1.3-0.6c0.2-0.4,0.3-1.1,0.3-2H75v5.6h-0.3c0-0.9-0.1-1.6-0.3-2
			c-0.2-0.4-0.6-0.6-1.3-0.6h-3.5v13.4h3.6c1.2,0,2.2-0.2,3-0.5c0.8-0.3,1.4-0.7,1.9-1.2c0.5-0.5,0.8-1,1.1-1.7
			c0.2-0.6,0.5-1.3,0.7-2l0.4,0.1l-1.4,5.6H64.5v-0.1c0.9,0,1.5-0.1,1.9-0.3c0.4-0.2,0.6-0.7,0.6-1.2V92.2c0-0.6-0.2-1-0.6-1.2
			c-0.4-0.2-1.1-0.3-1.9-0.3V90.5z"/>
		<path class="st0" d="M81.2,90.5h13.5l1.4,5.6l-0.4,0.2c-0.2-0.7-0.4-1.3-0.7-1.9c-0.3-0.6-0.6-1.2-1.1-1.7
			c-0.5-0.5-1.1-0.9-1.9-1.2c-0.8-0.3-1.8-0.5-2.9-0.5h-2.8v9h3.4c0.6,0,1-0.2,1.2-0.6c0.2-0.4,0.4-1.1,0.4-2h0.3v5.6h-0.3
			c0-0.9-0.1-1.6-0.4-2c-0.2-0.4-0.6-0.6-1.2-0.6h-3.4v12.2c0,0.6,0.2,1,0.6,1.2c0.4,0.2,1.1,0.3,2,0.3v0.1h-7.8v-0.1
			c0.9,0,1.6-0.1,2-0.3c0.4-0.2,0.6-0.7,0.6-1.2V92.2c0-0.6-0.2-1-0.6-1.2c-0.4-0.2-1.1-0.3-2-0.3V90.5z"/>
		<path class="st0" d="M96.6,90.7v-0.2h7.8v0.2c-0.9,0-1.5,0.1-2,0.3c-0.4,0.2-0.6,0.6-0.6,1.2v21.5c0.7,0,1.5,0,2.3,0.1
			c0.8,0.1,1.7,0.2,2.6,0.2c0.9,0.1,1.9,0.1,2.8,0.2c1,0.1,1.9,0.1,2.7,0.1c1.6,0,2.9-0.2,4.1-0.5c1.2-0.3,1.9-1,2.2-1.9l0.2,0
			c-0.1,0.8-0.4,1.6-0.8,2.2c-0.3,0.6-0.7,1.1-1.3,1.5s-1.3,0.7-2.2,0.7c-1,0-2-0.1-3-0.4s-2-0.5-3-0.8c-1-0.3-2.1-0.5-3.2-0.8
			s-2.3-0.3-3.5-0.3h-5.2v-0.1c0.9,0,1.6-0.1,2-0.3c0.4-0.2,0.6-0.7,0.6-1.2V92.2c0-0.6-0.2-1-0.6-1.2
			C98.1,90.8,97.5,90.7,96.6,90.7z M105.4,90.5h11.5l1.3,5.6l-0.3,0.2c-0.2-0.7-0.4-1.3-0.7-1.9c-0.3-0.6-0.6-1.2-1.1-1.7
			s-1.1-0.9-1.8-1.2c-0.8-0.3-1.8-0.5-3-0.5h-0.8v7.3h2c0.6,0,1-0.2,1.2-0.6c0.2-0.4,0.3-1.1,0.3-2h0.3v5.6h-0.3
			c0-0.9-0.1-1.6-0.3-2c-0.2-0.4-0.7-0.6-1.2-0.6h-2v9h1.6c1.2,0,2.2-0.2,3-0.5s1.4-0.7,1.9-1.2c0.5-0.5,0.8-1.1,1.1-1.7
			c0.3-0.6,0.5-1.3,0.7-1.9l0.3,0.1l-1.3,5.5h-12.4V108c0.9,0,1.6-0.1,2-0.3c0.4-0.2,0.6-0.7,0.6-1.2V92.2c0-0.6-0.2-1-0.6-1.2
			c-0.4-0.2-1.1-0.3-2-0.3V90.5z"/>
		<path class="st0" d="M122,107.3c0.6,0,1,0.2,1.3,0.5s0.5,0.7,0.5,1.2c0,0.4,0,0.8-0.2,1.1c-0.2,0.3-0.3,0.5-0.5,0.7
			c-0.2,0.2-0.4,0.4-0.5,0.5c-0.2,0.2-0.3,0.3-0.3,0.5c-0.1,0.3,0,0.6,0.1,0.9s0.4,0.6,0.7,0.8c0.3,0.2,0.7,0.4,1.1,0.5
			c0.4,0.1,0.9,0.2,1.3,0.2c1.1,0,2-0.4,2.5-1.1c0.6-0.8,0.9-2,0.9-3.7V92.6c0-0.6-0.3-1.1-0.9-1.4c-0.6-0.3-1.6-0.5-3.2-0.5v-0.2
			h9.2v0.2c-0.9,0-1.5,0.1-1.9,0.3c-0.4,0.2-0.6,0.6-0.6,1.2v15.8c0,0.8-0.1,1.7-0.5,2.5c-0.3,0.8-0.7,1.5-1.2,2.1
			c-0.5,0.6-1.2,1.1-1.9,1.4c-0.7,0.4-1.5,0.6-2.5,0.6c-0.8,0-1.6-0.1-2.3-0.4s-1.3-0.6-1.8-1.1s-0.8-1-1.1-1.6s-0.4-1.3-0.4-2
			c0-0.7,0.2-1.3,0.6-1.7C121.1,107.5,121.5,107.3,122,107.3z"/>
		<path class="st0" d="M147.4,90c1.9,0,3.6,0.3,5.1,1c1.5,0.7,2.8,1.6,3.9,2.7c1.1,1.1,1.9,2.4,2.5,3.9c0.6,1.5,0.8,3,0.8,4.7
			c0,1.6-0.3,3.2-0.8,4.7c-0.6,1.5-1.4,2.8-2.5,3.9c-1.1,1.1-2.4,2-3.9,2.7c-1.5,0.7-3.2,1-5.1,1s-3.6-0.3-5.1-1
			c-1.5-0.7-2.8-1.6-3.9-2.7c-1.1-1.1-1.9-2.4-2.5-3.9s-0.8-3-0.8-4.7c0-1.6,0.3-3.2,0.8-4.7c0.6-1.5,1.4-2.8,2.5-3.9
			c1.1-1.1,2.4-2,3.9-2.7C143.8,90.4,145.5,90,147.4,90z M137.7,102.3L137.7,102.3c0,1.8,0.3,3.4,0.7,4.9c0.4,1.5,1.1,2.7,1.9,3.7
			c0.8,1,1.8,1.8,3,2.4c1.2,0.6,2.5,0.9,4,0.9s2.8-0.3,4-0.9c1.2-0.6,2.2-1.4,3-2.4c0.8-1,1.5-2.3,1.9-3.7c0.5-1.5,0.7-3.1,0.7-4.9
			c0-1.8-0.2-3.4-0.7-4.9c-0.4-1.5-1.1-2.7-1.9-3.7c-0.8-1-1.8-1.8-3-2.4c-1.2-0.6-2.5-0.9-4-0.9s-2.8,0.3-4,0.9
			c-1.2,0.6-2.2,1.4-3,2.4c-0.8,1-1.5,2.3-1.9,3.7C137.9,98.9,137.7,100.5,137.7,102.3z"/>
	</g>
	<g>
		<path class="st0" d="M156,127.1c-32.3,2.2-65.6,2.1-98,0.8c-4.7-0.3-9.3-0.4-14-0.8C71.3,126.6,128.7,126.6,156,127.1L156,127.1z"
			/>
	</g>
	<g>
		<path class="st0" d="M42,77.4c7.2-1.9,14.7-2,22.1-1.3c2.5,0.3,4.9,0.6,7.4,1.3v0.2c-7.4,0.1-22.1,0.1-29.5,0
			C42,77.6,42,77.4,42,77.4L42,77.4z"/>
	</g>
	<g>
		<path class="st0" d="M126,77.4c7.2-1.9,14.7-2,22.1-1.3c2.5,0.3,4.9,0.6,7.4,1.3v0.2c-7.4,0.1-22.1,0.1-29.5,0
			C126,77.6,126,77.4,126,77.4L126,77.4z"/>
	</g>
	<g>
		<path class="st0" d="M71,155.5c0.9-0.2,2.1-0.3,3-0.2c0,0,3,0,3,0h3c0.9,0,2.1,0,3,0.3c-0.9,0.2-2.1,0.3-3,0.2c0,0-3,0-3,0h-3
			C73.1,155.8,71.9,155.7,71,155.5L71,155.5z"/>
	</g>
	<g>
		<path class="st0" d="M118,155.5c0.9-0.2,2.1-0.3,3-0.2c0,0,3,0,3,0h3c0.9,0,2.1,0,3,0.3c-0.9,0.2-2.1,0.3-3,0.2c0,0-3,0-3,0h-3
			C120.1,155.8,118.9,155.7,118,155.5L118,155.5z"/>
	</g>
</g>
<g id="Layer_1">
	<path class="st2" d="M79.7,41.4c5.2-3.1,12.3-1.1,17.7,4.4c-0.2,0.6-0.4,1.2-0.5,1.8c-1.4,5.5-1,10.9,0.7,15.2c1.2,3,3,5.4,5.4,7
		c-0.6,1.2-1.5,2.3-2.5,3.1c-3-9.9-6.6-13.5-10.6-16.5c-3.9-2.9-8.5-5.7-10.6-14.8C79.5,41.5,79.6,41.4,79.7,41.4L79.7,41.4z
		 M116.3,32.8c7.3,1.8,11.2,11.5,8.7,21.7c-2.3,9.4-9.3,15.8-16.1,15.3c4.9-9.1,4.9-14.2,4.2-19.1c-0.7-4.8-2-10,2.9-18
		C116.1,32.8,116.2,32.8,116.3,32.8L116.3,32.8z M107.7,69.7c-0.2,0-0.4-0.1-0.6-0.1c-7.3-1.8-11.2-11.5-8.7-21.7
		c2.4-9.6,9.6-16.1,16.6-15.3c-5.3,8.4-5.4,12.9-4.7,17.9C111,55.2,112.2,61,107.7,69.7L107.7,69.7z M99.7,73.5
		c-0.2,0.1-0.3,0.2-0.5,0.3c-6.5,3.9-16.1-0.2-21.5-9.2c-5.1-8.4-4.6-18.2,0.9-22.5c2.2,9.7,5.3,12.9,9.3,16
		C91.8,60.9,96.8,64.2,99.7,73.5L99.7,73.5z"/>
	<g>
		<path class="st0" d="M72.2,147.2c0.2,0,0.4,0,0.5-0.1c0.1-0.1,0.2-0.2,0.2-0.3v-5.9c0-0.2-0.1-0.3-0.2-0.3s-0.3-0.1-0.5-0.1v0H74
			c0.3,0,0.7,0,1,0.1s0.6,0.2,0.9,0.3c0.3,0.2,0.5,0.4,0.6,0.6c0.2,0.3,0.2,0.6,0.2,0.9c0,0.4-0.1,0.7-0.2,0.9
			c-0.2,0.3-0.4,0.5-0.6,0.6c-0.3,0.2-0.5,0.3-0.9,0.3c-0.3,0.1-0.6,0.1-1,0.1h-0.5v2.3c0,0.2,0.1,0.3,0.2,0.3
			c0.1,0.1,0.3,0.1,0.5,0.1v0L72.2,147.2L72.2,147.2z M73.6,140.6v3.8h0.6c0.2,0,0.4,0,0.6-0.1c0.2-0.1,0.4-0.1,0.6-0.3
			c0.2-0.1,0.3-0.3,0.5-0.6s0.2-0.6,0.2-1c0-0.4-0.1-0.7-0.2-1c-0.1-0.2-0.3-0.4-0.5-0.6c-0.2-0.1-0.4-0.2-0.6-0.3
			c-0.2-0.1-0.4-0.1-0.6-0.1H73.6z"/>
		<path class="st0" d="M76.9,147.2c0.2,0,0.3,0,0.4-0.1c0.1-0.1,0.1-0.1,0.1-0.3v-4.5c0-0.1,0-0.2-0.1-0.3s-0.2-0.1-0.4-0.1v0h1.6
			c0.3,0,0.6,0,0.8,0.1c0.3,0,0.5,0.1,0.7,0.2s0.4,0.3,0.5,0.5c0.1,0.2,0.2,0.5,0.2,0.8c0,0.2,0,0.4-0.1,0.6
			c-0.1,0.2-0.2,0.3-0.3,0.4s-0.3,0.2-0.5,0.3s-0.4,0.1-0.6,0.2l1.1,1.8c0.1,0.1,0.2,0.2,0.3,0.3c0.1,0.1,0.3,0.1,0.5,0.1v0h-1.8v0
			c0.2,0,0.3,0,0.4-0.1c0.1-0.1,0.1-0.1,0-0.3l-1.1-1.7h-0.7v1.7c0,0.1,0,0.2,0.1,0.3c0.1,0.1,0.2,0.1,0.4,0.1v0L76.9,147.2
			L76.9,147.2z M78.1,145h0.5c0.2,0,0.4,0,0.6-0.1c0.2,0,0.4-0.1,0.5-0.2s0.3-0.3,0.4-0.4s0.1-0.4,0.1-0.7c0-0.3,0-0.5-0.1-0.7
			c-0.1-0.2-0.2-0.3-0.4-0.4c-0.2-0.1-0.3-0.2-0.5-0.2c-0.2,0-0.4-0.1-0.6-0.1h-0.5V145z"/>
		<path class="st0" d="M81.3,142h3l0.3,1.2l-0.1,0c0-0.1-0.1-0.3-0.1-0.4c-0.1-0.1-0.1-0.3-0.2-0.4c-0.1-0.1-0.2-0.2-0.4-0.3
			c-0.2-0.1-0.4-0.1-0.6-0.1h-0.6v2h0.8c0.1,0,0.2,0,0.3-0.1c0-0.1,0.1-0.2,0.1-0.4h0.1v1.2h-0.1c0-0.2,0-0.3-0.1-0.4
			c0-0.1-0.1-0.1-0.3-0.1h-0.8v2.9h0.8c0.3,0,0.5,0,0.6-0.1c0.2-0.1,0.3-0.2,0.4-0.3c0.1-0.1,0.2-0.2,0.2-0.4
			c0.1-0.1,0.1-0.3,0.1-0.4l0.1,0l-0.3,1.2h-3.2v0c0.2,0,0.3,0,0.4-0.1c0.1-0.1,0.1-0.1,0.1-0.3v-4.5c0-0.1,0-0.2-0.1-0.3
			C81.6,142.1,81.5,142,81.3,142L81.3,142z"/>
		<path class="st0" d="M85.5,146.8v-4.5c0-0.1,0-0.2-0.1-0.3S85.2,142,85,142v0H86l1.5,3.4l1.5-3.4h1v0c-0.2,0-0.3,0-0.4,0.1
			s-0.1,0.1-0.1,0.3v4.5c0,0.1,0,0.2,0.1,0.3c0.1,0.1,0.2,0.1,0.4,0.1v0h-1.7v0c0.2,0,0.3,0,0.4-0.1c0.1-0.1,0.1-0.1,0.1-0.3v-4.2
			l-1.6,3.7l-1.6-3.7L85.5,146.8c0.1,0.1,0.1,0.2,0.2,0.3c0.1,0.1,0.2,0.1,0.4,0.1v0H85v0c0.2,0,0.3,0,0.4-0.1
			C85.5,147.1,85.5,147,85.5,146.8z"/>
		<path class="st0" d="M90.3,147.2c0.2,0,0.3,0,0.4-0.1c0.1-0.1,0.1-0.1,0.1-0.3v-4.5c0-0.1,0-0.2-0.1-0.3s-0.2-0.1-0.4-0.1v0H92v0
			c-0.2,0-0.3,0-0.4,0.1s-0.1,0.1-0.1,0.3v4.5c0,0.1,0,0.2,0.1,0.3c0.1,0.1,0.2,0.1,0.4,0.1v0L90.3,147.2L90.3,147.2z"/>
		<path class="st0" d="M92.2,142h1.7v0c-0.2,0-0.3,0-0.4,0.1c-0.1,0-0.1,0.1-0.1,0.3v2.9c0,0.3,0,0.6,0.1,0.8s0.2,0.4,0.3,0.5
			c0.1,0.1,0.3,0.2,0.5,0.3s0.4,0.1,0.6,0.1c0.5,0,0.8-0.1,1.1-0.4s0.5-0.7,0.5-1.3v-2.9c0-0.1,0-0.2-0.1-0.3
			c-0.1,0-0.2-0.1-0.4-0.1v0h1.2v0c-0.2,0-0.3,0-0.4,0.1s-0.1,0.1-0.1,0.3v2.9c0,0.4-0.1,0.8-0.2,1c-0.1,0.3-0.3,0.5-0.5,0.6
			c-0.2,0.1-0.4,0.2-0.6,0.3s-0.4,0.1-0.5,0.1c-0.2,0-0.5,0-0.7-0.1c-0.2-0.1-0.4-0.2-0.6-0.4s-0.3-0.4-0.4-0.6
			c-0.1-0.2-0.2-0.5-0.2-0.9v-2.9c0-0.1,0-0.2-0.1-0.3S92.4,142,92.2,142L92.2,142z"/>
		<path class="st0" d="M97.9,146.8v-4.5c0-0.1,0-0.2-0.1-0.3s-0.2-0.1-0.4-0.1v0h1.1l1.5,3.4l1.5-3.4h1v0c-0.2,0-0.3,0-0.4,0.1
			s-0.1,0.1-0.1,0.3v4.5c0,0.1,0,0.2,0.1,0.3c0.1,0.1,0.2,0.1,0.4,0.1v0h-1.7v0c0.2,0,0.3,0,0.4-0.1c0.1-0.1,0.1-0.1,0.1-0.3v-4.2
			l-1.6,3.7l-1.6-3.7L97.9,146.8c0.1,0.1,0.1,0.2,0.2,0.3c0.1,0.1,0.2,0.1,0.4,0.1v0h-1.2v0c0.2,0,0.3,0,0.4-0.1
			C97.9,147.1,97.9,147,97.9,146.8z"/>
		<path class="st0" d="M109.2,140.3c0.3,0,0.5,0,0.7,0.1c0.2,0.1,0.4,0.1,0.5,0.2c0.1,0.1,0.3,0.1,0.3,0.2s0.2,0.1,0.2,0
			c0,0,0.1,0,0.1-0.1c0-0.1,0-0.1,0-0.2c0-0.1,0-0.1,0-0.2l0.1,0l0.5,1.6l-0.1,0c-0.1-0.3-0.3-0.5-0.5-0.7c-0.2-0.2-0.4-0.3-0.7-0.5
			c-0.3-0.1-0.6-0.2-1-0.2c-0.4,0-0.7,0.1-1.1,0.2c-0.3,0.2-0.6,0.4-0.9,0.7c-0.2,0.3-0.4,0.6-0.6,1c-0.1,0.4-0.2,0.9-0.2,1.4
			s0.1,1,0.2,1.4c0.1,0.4,0.3,0.8,0.6,1c0.2,0.3,0.5,0.5,0.9,0.7s0.7,0.2,1.1,0.2c0.4,0,0.8-0.1,1.1-0.2c0.3-0.2,0.5-0.3,0.7-0.5
			c0.2-0.2,0.4-0.5,0.5-0.7l0.1,0.1c-0.1,0.3-0.3,0.5-0.6,0.8c-0.2,0.2-0.5,0.4-0.8,0.5c-0.3,0.2-0.7,0.2-1.2,0.2
			c-0.5,0-0.9-0.1-1.3-0.3c-0.4-0.2-0.7-0.4-1-0.7c-0.3-0.3-0.5-0.7-0.7-1.1c-0.2-0.4-0.2-0.9-0.2-1.4s0.1-1,0.2-1.4
			c0.2-0.4,0.4-0.8,0.7-1.1c0.3-0.3,0.6-0.5,1-0.7C108.3,140.4,108.7,140.3,109.2,140.3z"/>
		<path class="st0" d="M114.6,141.9c0.4,0,0.8,0.1,1.1,0.2c0.3,0.1,0.6,0.3,0.8,0.6c0.2,0.2,0.4,0.5,0.5,0.9c0.1,0.3,0.2,0.7,0.2,1
			s-0.1,0.7-0.2,1c-0.1,0.3-0.3,0.6-0.5,0.9c-0.2,0.2-0.5,0.4-0.8,0.6s-0.7,0.2-1.1,0.2s-0.8-0.1-1.1-0.2s-0.6-0.3-0.8-0.6
			c-0.2-0.2-0.4-0.5-0.5-0.9c-0.1-0.3-0.2-0.7-0.2-1s0.1-0.7,0.2-1s0.3-0.6,0.5-0.9s0.5-0.4,0.8-0.6
			C113.8,142,114.2,141.9,114.6,141.9z M112.5,144.6L112.5,144.6c0,0.4,0.1,0.8,0.2,1.1c0.1,0.3,0.2,0.6,0.4,0.8
			c0.2,0.2,0.4,0.4,0.7,0.5c0.3,0.1,0.6,0.2,0.9,0.2s0.6-0.1,0.9-0.2c0.3-0.1,0.5-0.3,0.7-0.5s0.3-0.5,0.4-0.8
			c0.1-0.3,0.1-0.7,0.1-1.1c0-0.4,0-0.8-0.1-1.1c-0.1-0.3-0.2-0.6-0.4-0.8s-0.4-0.4-0.7-0.5c-0.3-0.1-0.6-0.2-0.9-0.2
			s-0.6,0.1-0.9,0.2s-0.5,0.3-0.7,0.5c-0.2,0.2-0.3,0.5-0.4,0.8C112.5,143.8,112.5,144.2,112.5,144.6z"/>
		<path class="st0" d="M117.5,142h3l0.3,1.2l-0.1,0c0-0.1-0.1-0.3-0.2-0.4s-0.1-0.3-0.2-0.4s-0.2-0.2-0.4-0.3
			c-0.2-0.1-0.4-0.1-0.6-0.1h-0.6v2h0.8c0.1,0,0.2,0,0.3-0.1c0.1-0.1,0.1-0.2,0.1-0.4h0.1v1.2h-0.1c0-0.2,0-0.3-0.1-0.4
			c-0.1-0.1-0.1-0.1-0.3-0.1h-0.8v2.7c0,0.1,0,0.2,0.1,0.3c0.1,0.1,0.2,0.1,0.4,0.1v0h-1.7v0c0.2,0,0.3,0,0.4-0.1
			c0.1-0.1,0.1-0.1,0.1-0.3v-4.5c0-0.1,0-0.2-0.1-0.3C117.9,142.1,117.7,142,117.5,142L117.5,142z"/>
		<path class="st0" d="M120.9,142h3l0.3,1.2l-0.1,0c0-0.1-0.1-0.3-0.2-0.4s-0.1-0.3-0.2-0.4s-0.2-0.2-0.4-0.3
			c-0.2-0.1-0.4-0.1-0.6-0.1h-0.6v2h0.8c0.1,0,0.2,0,0.3-0.1c0.1-0.1,0.1-0.2,0.1-0.4h0.1v1.2h-0.1c0-0.2,0-0.3-0.1-0.4
			c-0.1-0.1-0.1-0.1-0.3-0.1h-0.8v2.7c0,0.1,0,0.2,0.1,0.3c0.1,0.1,0.2,0.1,0.4,0.1v0h-1.7v0c0.2,0,0.3,0,0.4-0.1
			c0.1-0.1,0.1-0.1,0.1-0.3v-4.5c0-0.1,0-0.2-0.1-0.3C121.3,142.1,121.1,142,120.9,142L120.9,142z"/>
		<path class="st0" d="M124.3,142h3l0.3,1.2l-0.1,0c0-0.1-0.1-0.3-0.1-0.4s-0.1-0.3-0.2-0.4s-0.2-0.2-0.4-0.3
			c-0.2-0.1-0.4-0.1-0.6-0.1h-0.6v2h0.8c0.1,0,0.2,0,0.3-0.1s0.1-0.2,0.1-0.4h0.1v1.2h-0.1c0-0.2,0-0.3-0.1-0.4
			c0-0.1-0.1-0.1-0.3-0.1h-0.8v2.9h0.8c0.3,0,0.5,0,0.6-0.1c0.2-0.1,0.3-0.2,0.4-0.3c0.1-0.1,0.2-0.2,0.2-0.4
			c0.1-0.1,0.1-0.3,0.1-0.4l0.1,0l-0.3,1.2h-3.2v0c0.2,0,0.3,0,0.4-0.1c0.1-0.1,0.1-0.1,0.1-0.3v-4.5c0-0.1,0-0.2-0.1-0.3
			S124.5,142,124.3,142L124.3,142z"/>
	</g>
	<g>
		<path class="st0" d="M85.9,155.7L85.9,155.7c0.1,0.3,0.2,0.5,0.3,0.8c0.1,0.3,0.2,0.5,0.4,0.7c0.1,0.2,0.3,0.4,0.5,0.5
			c0.2,0.1,0.4,0.2,0.6,0.2c0.3,0,0.5-0.1,0.7-0.3c0.2-0.2,0.3-0.4,0.3-0.8c0-0.3-0.1-0.5-0.2-0.7c-0.1-0.2-0.3-0.3-0.5-0.5
			c-0.2-0.1-0.4-0.3-0.6-0.4s-0.4-0.3-0.6-0.4c-0.2-0.1-0.3-0.3-0.5-0.4c-0.1-0.2-0.2-0.4-0.2-0.6c0-0.1,0-0.3,0.1-0.4
			s0.1-0.2,0.2-0.3c0.1-0.1,0.2-0.2,0.4-0.2c0.2-0.1,0.3-0.1,0.5-0.1c0.2,0,0.3,0,0.4,0c0.1,0,0.2,0.1,0.3,0.1s0.1,0.1,0.2,0.1
			s0.1,0,0.1,0c0,0,0,0,0-0.1c0,0,0-0.1,0-0.1c0,0,0-0.1,0-0.1l0.1,0l0.2,1.2l-0.1,0c-0.1-0.2-0.2-0.4-0.3-0.5
			c-0.1-0.1-0.2-0.3-0.4-0.4c-0.1-0.1-0.3-0.2-0.5-0.2c-0.2,0-0.4,0.1-0.6,0.2c-0.2,0.1-0.2,0.3-0.2,0.5c0,0.2,0.1,0.4,0.2,0.5
			s0.3,0.3,0.5,0.4c0.2,0.1,0.4,0.2,0.6,0.4c0.2,0.1,0.4,0.3,0.6,0.4c0.2,0.2,0.3,0.3,0.5,0.5c0.1,0.2,0.2,0.4,0.2,0.7
			c0,0.2,0,0.3-0.1,0.5s-0.1,0.3-0.3,0.4c-0.1,0.1-0.3,0.2-0.5,0.3c-0.2,0.1-0.4,0.1-0.6,0.1c-0.2,0-0.4,0-0.6-0.1
			c-0.2-0.1-0.3-0.2-0.5-0.3c-0.1-0.1-0.2-0.2-0.3-0.3c-0.1-0.1-0.1-0.1-0.2-0.1c0,0,0,0-0.1,0.1c0,0,0,0.1,0,0.1s0,0.1,0,0.1h-0.1
			V155.7z"/>
		<path class="st0" d="M89.3,157.8c0.1,0,0.2,0,0.3-0.1s0.1-0.1,0.1-0.2v-3.2c0-0.1,0-0.2-0.1-0.2c-0.1,0-0.2-0.1-0.3-0.1v0h1.2v0
			c-0.1,0-0.2,0-0.3,0.1c-0.1,0-0.1,0.1-0.1,0.2v3.2c0,0.1,0,0.2,0.1,0.2s0.2,0.1,0.3,0.1v0L89.3,157.8L89.3,157.8z"/>
		<path class="st0" d="M90.7,157.8c0.1,0,0.2,0,0.3-0.1c0.1,0,0.1-0.1,0.1-0.2v-3.2c0-0.1,0-0.2-0.1-0.2c-0.1,0-0.2-0.1-0.3-0.1v0
			h0.8l1.6,2.8v-2.5c0-0.1,0-0.2-0.1-0.2c-0.1,0-0.2-0.1-0.3-0.1v0h0.9v0c-0.1,0-0.2,0-0.3,0.1c-0.1,0-0.1,0.1-0.1,0.2v3.6l-2-3.5
			v3.2c0,0.1,0,0.2,0.1,0.2c0.1,0,0.2,0.1,0.3,0.1v0L90.7,157.8L90.7,157.8z"/>
		<path class="st0" d="M95.5,153.9c0.2,0,0.3,0,0.5,0.1c0.1,0,0.2,0.1,0.3,0.1c0.1,0,0.2,0.1,0.2,0.1s0.1,0,0.1,0c0,0,0,0,0-0.1
			c0,0,0-0.1,0-0.1c0,0,0-0.1,0-0.1l0,0l0.3,1l-0.1,0c-0.1-0.2-0.2-0.3-0.3-0.5c-0.1-0.1-0.3-0.2-0.4-0.3s-0.4-0.1-0.6-0.1
			c-0.4,0-0.8,0.2-1,0.5c-0.3,0.3-0.4,0.8-0.4,1.4c0,0.3,0,0.6,0.1,0.8c0.1,0.2,0.2,0.4,0.3,0.6c0.1,0.2,0.3,0.3,0.5,0.3
			c0.2,0.1,0.4,0.1,0.5,0.1c0.3,0,0.5,0,0.7-0.1s0.3-0.2,0.4-0.3c0.1-0.1,0.2-0.3,0.3-0.4l0.1,0c-0.1,0.2-0.2,0.3-0.3,0.5
			c-0.1,0.1-0.3,0.2-0.5,0.3c-0.2,0.1-0.4,0.2-0.7,0.2c-0.3,0-0.5,0-0.7-0.1c-0.2-0.1-0.4-0.2-0.6-0.4c-0.2-0.2-0.3-0.4-0.4-0.6
			c-0.1-0.2-0.1-0.5-0.1-0.8c0-0.3,0-0.6,0.1-0.8c0.1-0.2,0.2-0.4,0.4-0.6c0.2-0.2,0.3-0.3,0.5-0.4C95,154,95.2,153.9,95.5,153.9z"
			/>
		<path class="st0" d="M97.2,154h2.2l0.2,0.9l-0.1,0c0-0.1-0.1-0.2-0.1-0.3c0-0.1-0.1-0.2-0.2-0.3s-0.2-0.1-0.3-0.2
			c-0.1,0-0.3-0.1-0.5-0.1h-0.4v1.4h0.6c0.1,0,0.2,0,0.2-0.1c0-0.1,0.1-0.2,0.1-0.3h0.1v0.9h-0.1c0-0.1,0-0.2-0.1-0.3
			s-0.1-0.1-0.2-0.1h-0.6v2.1h0.6c0.2,0,0.3,0,0.5-0.1c0.1,0,0.2-0.1,0.3-0.2s0.1-0.2,0.2-0.3c0-0.1,0.1-0.2,0.1-0.3l0.1,0l-0.2,0.9
			h-2.3v0c0.1,0,0.2,0,0.3-0.1c0.1,0,0.1-0.1,0.1-0.2v-3.2c0-0.1,0-0.2-0.1-0.2C97.5,154,97.4,154,97.2,154L97.2,154z"/>
		<path class="st0" d="M104.6,153.8c0-0.3-0.1-0.5-0.2-0.7c-0.2-0.1-0.3-0.2-0.6-0.2c-0.2,0-0.4,0.1-0.5,0.2
			c-0.1,0.1-0.2,0.3-0.3,0.4c-0.1,0.2-0.2,0.4-0.2,0.6l-0.2-0.6c0.1-0.1,0.2-0.3,0.3-0.4c0.1-0.1,0.2-0.2,0.4-0.3
			c0.2-0.1,0.4-0.1,0.6-0.1c0.2,0,0.3,0,0.5,0.1c0.2,0,0.3,0.1,0.4,0.2c0.1,0.1,0.2,0.2,0.3,0.3c0.1,0.1,0.1,0.3,0.1,0.5
			c0,0.2,0,0.4-0.1,0.6s-0.2,0.4-0.4,0.5c-0.1,0.2-0.3,0.3-0.5,0.5c-0.2,0.2-0.4,0.3-0.6,0.5c-0.2,0.2-0.4,0.4-0.5,0.6
			c-0.2,0.2-0.3,0.4-0.4,0.7h1.2c0.2,0,0.4,0,0.5-0.1c0.1-0.1,0.3-0.1,0.3-0.2c0.1-0.1,0.2-0.2,0.2-0.3c0-0.1,0.1-0.2,0.1-0.4l0.1,0
			l-0.3,1.4h-2.5c0.1-0.3,0.2-0.5,0.4-0.8c0.2-0.2,0.3-0.5,0.5-0.7s0.3-0.4,0.5-0.7s0.3-0.4,0.5-0.6s0.3-0.4,0.3-0.6
			C104.6,154.2,104.6,154,104.6,153.8z"/>
		<path class="st0" d="M107.4,152.8c0.3,0,0.5,0.1,0.7,0.2s0.4,0.3,0.5,0.5c0.1,0.2,0.2,0.5,0.3,0.8c0.1,0.3,0.1,0.6,0.1,1
			c0,0.3,0,0.7-0.1,1c-0.1,0.3-0.2,0.6-0.3,0.8s-0.3,0.4-0.5,0.5s-0.5,0.2-0.7,0.2s-0.5-0.1-0.7-0.2s-0.4-0.3-0.5-0.5
			c-0.1-0.2-0.2-0.5-0.3-0.8c-0.1-0.3-0.1-0.6-0.1-1c0-0.3,0-0.7,0.1-1c0.1-0.3,0.2-0.6,0.3-0.8c0.1-0.2,0.3-0.4,0.5-0.5
			S107.1,152.8,107.4,152.8z M106.2,155.3c0,0.3,0,0.7,0.1,0.9c0,0.3,0.1,0.5,0.2,0.8s0.2,0.4,0.4,0.5c0.1,0.1,0.3,0.2,0.5,0.2
			s0.4-0.1,0.5-0.2c0.1-0.1,0.3-0.3,0.4-0.5c0.1-0.2,0.2-0.5,0.2-0.8c0-0.3,0.1-0.6,0.1-0.9c0-0.3,0-0.6-0.1-0.9
			c0-0.3-0.1-0.5-0.2-0.8c-0.1-0.2-0.2-0.4-0.4-0.5c-0.1-0.1-0.3-0.2-0.5-0.2s-0.4,0.1-0.5,0.2c-0.1,0.1-0.3,0.3-0.4,0.5
			s-0.2,0.5-0.2,0.8C106.2,154.6,106.2,155,106.2,155.3z"/>
		<path class="st0" d="M111.5,153.8c0-0.3-0.1-0.5-0.2-0.7c-0.2-0.1-0.3-0.2-0.6-0.2c-0.2,0-0.4,0.1-0.5,0.2
			c-0.1,0.1-0.2,0.3-0.3,0.4c-0.1,0.2-0.2,0.4-0.2,0.6l-0.2-0.6c0.1-0.1,0.2-0.3,0.3-0.4c0.1-0.1,0.2-0.2,0.4-0.3
			c0.2-0.1,0.4-0.1,0.6-0.1c0.2,0,0.3,0,0.5,0.1c0.2,0,0.3,0.1,0.4,0.2c0.1,0.1,0.2,0.2,0.3,0.3c0.1,0.1,0.1,0.3,0.1,0.5
			c0,0.2,0,0.4-0.1,0.6s-0.2,0.4-0.4,0.5c-0.1,0.2-0.3,0.3-0.5,0.5c-0.2,0.2-0.4,0.3-0.6,0.5c-0.2,0.2-0.4,0.4-0.5,0.6
			c-0.2,0.2-0.3,0.4-0.4,0.7h1.2c0.2,0,0.4,0,0.5-0.1c0.1-0.1,0.3-0.1,0.3-0.2c0.1-0.1,0.2-0.2,0.2-0.3c0-0.1,0.1-0.2,0.1-0.4l0.1,0
			l-0.3,1.4h-2.5c0.1-0.3,0.2-0.5,0.4-0.8c0.2-0.2,0.3-0.5,0.5-0.7s0.3-0.4,0.5-0.7s0.3-0.4,0.5-0.6s0.3-0.4,0.3-0.6
			C111.5,154.2,111.5,154,111.5,153.8z"/>
		<path class="st0" d="M112.5,153.9l1-1h0.2v4.6c0,0.1,0,0.2,0.1,0.2c0.1,0,0.2,0.1,0.4,0.1v0h-1.4v0c0.2,0,0.3,0,0.4-0.1
			c0.1,0,0.1-0.1,0.1-0.2v-3.6c0-0.1,0-0.2,0-0.2s-0.1-0.1-0.1-0.1c0,0-0.1,0-0.1,0c-0.1,0-0.1,0.1-0.1,0.1
			C112.7,153.8,112.6,153.9,112.5,153.9L112.5,153.9z"/>
	</g>
</g>
</svg>
